M48
;GenerationSoftware,Autodesk,EAGLE,9.7.0*%
;CreationDate,2025-04-06T15:54:07Z*%
FMAT,2
ICI,OFF
METRIC,TZ,000.000
T2C0.300
T1C0.650
%
G90
M71
T1
X165037Y57190
X165037Y51410
T2
X89471Y59901
X25899Y43489
X158444Y58793
X95219Y58862
X89055Y58862
X24791Y43004
X163015Y54084
X163015Y55054
X155259Y58031
X7410Y59693
X7410Y85108
X50622Y93349
X47713Y91341
X63710Y30608
X69666Y29223
X120218Y52491
X120218Y48475
X116755Y34071
X61494Y17174
X158998Y57131
X163015Y53115
X162045Y56577
X163015Y56439
X35525Y21952
X35248Y20706
X36426Y25068
X7894Y85662
X11288Y44458
X89402Y14196
X23476Y7617
X21191Y23476
X44943Y50137
X21191Y19806
X15027Y42035
X9349Y85662
X13434Y45220
X17382Y23476
X17382Y20637
X36287Y54292
X9834Y59416
X3878Y93280
X65510Y60386
X121949Y57339
X123196Y56092
X125342Y35179
X125342Y34071
X46813Y104844
X46536Y105952
X15027Y54915
X48336Y107822
X92033Y51106
X92033Y60386
X52768Y36218
X88294Y63918
X95288Y62463
X18213Y42173
X38988Y53946
X45428Y60386
X90510Y17867
X51799Y34556
X33102Y46744
X81161Y21191
X58170Y27700
X17590Y41550
X44458Y39403
X23268Y23476
X23268Y20637
X14404Y42173
X3878Y91133
X12880Y44458
X89679Y16204
X25899Y10665
X45843Y50760
X24791Y61355
X61148Y107614
X28808Y106022
X44389Y90440
X44389Y89471
X83793Y17936
X82061Y17936
X30885Y23476
X30885Y21052
X20152Y34279
X27077Y23476
X27077Y20637
X36772Y53946
X27146Y44320
X27077Y26730
X60801Y106091
X67727Y106091
X12880Y59555
X21191Y108099
X11495Y59693
X83239Y108584
X13850Y59209
X85385Y100620
X26523Y59832
X90163Y63017
X158444Y14404
X153043Y15789
X126589Y54084
X93972Y51314
X20221Y59001
X153666Y12880
X153666Y15581
X156782Y15443
X126243Y53599
X96950Y53599
X21329Y58516
X91410Y16204
X61494Y42658
X32617Y47228
X156505Y60247
X65372Y20152
X65372Y17659
X88640Y38780
X77422Y42658
X84762Y14612
X81507Y20221
X83377Y11426
X88224Y13642
X92933Y17797
X79222Y40234
X94942Y17036
X72436Y28531
X94942Y16412
X76660Y20706
X112462Y52630
X112462Y45636
X121049Y45151
X40788Y47228
X122226Y48960
X131783Y58101
X85178Y64195
X85178Y67242
X82754Y13711
X82754Y11426
X86424Y14612
X89471Y18975
X86078Y14127
X85939Y18905
X87463Y14612
X89748Y17382
X92241Y13365
X89402Y10526
X60386Y43143
X139331Y10872
X93834Y60247
X133653Y57754
M30