G04 EAGLE Gerber RS-274X export*
G75*
%MOMM*%
%FSLAX34Y34*%
%LPD*%
%INBottom Copper*%
%IPPOS*%
%AMOC8*
5,1,8,0,0,1.08239X$1,22.5*%
G01*
G04 Define Apertures*
%ADD10C,0.150000*%
%ADD11C,0.452400*%
G36*
X799635Y2060D02*
X799338Y2000D01*
X2762Y2000D01*
X2487Y2051D01*
X2232Y2215D01*
X2060Y2465D01*
X2000Y2762D01*
X2000Y418338D01*
X2051Y418613D01*
X2215Y418868D01*
X2465Y419040D01*
X2762Y419100D01*
X63448Y419100D01*
X63488Y419106D01*
X63491Y419107D01*
X63500Y419162D01*
X63500Y427204D01*
X63556Y427490D01*
X63604Y427562D01*
X63604Y613788D01*
X63560Y613852D01*
X63500Y614150D01*
X63500Y622248D01*
X63494Y622288D01*
X63493Y622291D01*
X63438Y622300D01*
X2762Y622300D01*
X2487Y622351D01*
X2232Y622515D01*
X2060Y622765D01*
X2000Y623062D01*
X2000Y1109238D01*
X2051Y1109513D01*
X2215Y1109768D01*
X2465Y1109940D01*
X2762Y1110000D01*
X199256Y1110000D01*
X199531Y1109949D01*
X199786Y1109785D01*
X199958Y1109535D01*
X200018Y1109238D01*
X200018Y1091056D01*
X201636Y1089438D01*
X674244Y1089438D01*
X675862Y1091056D01*
X675862Y1109238D01*
X675913Y1109513D01*
X676077Y1109768D01*
X676327Y1109940D01*
X676624Y1110000D01*
X918476Y1110000D01*
X918751Y1109949D01*
X919006Y1109785D01*
X919178Y1109535D01*
X919238Y1109238D01*
X919238Y670856D01*
X920856Y669238D01*
X1699238Y669238D01*
X1699513Y669187D01*
X1699768Y669023D01*
X1699940Y668773D01*
X1700000Y668476D01*
X1700000Y2762D01*
X1699949Y2487D01*
X1699785Y2232D01*
X1699535Y2060D01*
X1699238Y2000D01*
X993524Y2000D01*
X993249Y2051D01*
X992994Y2215D01*
X992822Y2465D01*
X992762Y2762D01*
X992762Y100838D01*
X992813Y101113D01*
X992977Y101368D01*
X993227Y101540D01*
X993524Y101600D01*
X992622Y101600D01*
X992336Y101656D01*
X992083Y101823D01*
X991144Y102762D01*
X898312Y102762D01*
X898037Y102813D01*
X897781Y102977D01*
X897610Y103227D01*
X897550Y103524D01*
X897550Y105620D01*
X897605Y105906D01*
X897773Y106158D01*
X921512Y129897D01*
X921753Y130060D01*
X922050Y130121D01*
X923873Y130121D01*
X925942Y132190D01*
X925942Y135116D01*
X923873Y137185D01*
X920947Y137185D01*
X918878Y135116D01*
X918878Y133293D01*
X918822Y133007D01*
X918655Y132754D01*
X894916Y109015D01*
X894674Y108852D01*
X894377Y108792D01*
X892555Y108792D01*
X890486Y106723D01*
X890486Y103524D01*
X890434Y103249D01*
X890271Y102994D01*
X890021Y102822D01*
X889724Y102762D01*
X859513Y102762D01*
X859250Y102809D01*
X858992Y102968D01*
X858817Y103216D01*
X858751Y103512D01*
X858807Y103810D01*
X858975Y104063D01*
X893119Y138207D01*
X893361Y138370D01*
X893658Y138431D01*
X895481Y138431D01*
X897550Y140500D01*
X897550Y143426D01*
X895366Y145609D01*
X895208Y145840D01*
X895143Y146136D01*
X895198Y146434D01*
X895366Y146687D01*
X906982Y158303D01*
X907213Y158461D01*
X907509Y158526D01*
X907807Y158471D01*
X908060Y158303D01*
X911878Y154485D01*
X953024Y154485D01*
X959055Y160516D01*
X959055Y173962D01*
X794463Y338554D01*
X794300Y338795D01*
X794240Y339092D01*
X794240Y399052D01*
X794296Y399338D01*
X794463Y399591D01*
X795867Y400994D01*
X796097Y401152D01*
X796393Y401217D01*
X796691Y401162D01*
X796944Y400994D01*
X812158Y385780D01*
X883109Y385780D01*
X883395Y385724D01*
X883648Y385557D01*
X884937Y384268D01*
X887863Y384268D01*
X889932Y386337D01*
X889932Y389263D01*
X887863Y391332D01*
X884937Y391332D01*
X883648Y390043D01*
X883407Y389880D01*
X883109Y389820D01*
X814147Y389820D01*
X813861Y389876D01*
X813609Y390043D01*
X777970Y425682D01*
X777807Y425923D01*
X777747Y426220D01*
X777747Y428043D01*
X777683Y428107D01*
X777530Y428326D01*
X777461Y428621D01*
X777511Y428920D01*
X777675Y429176D01*
X777925Y429347D01*
X778222Y429408D01*
X1069453Y429408D01*
X1069739Y429352D01*
X1069991Y429184D01*
X1389555Y109621D01*
X1389718Y109379D01*
X1389778Y109082D01*
X1389778Y107260D01*
X1391847Y105191D01*
X1394773Y105191D01*
X1396842Y107260D01*
X1396842Y110186D01*
X1394773Y112255D01*
X1392950Y112255D01*
X1392664Y112310D01*
X1392412Y112478D01*
X1168903Y335986D01*
X1168745Y336216D01*
X1168680Y336512D01*
X1168736Y336811D01*
X1168903Y337063D01*
X1171087Y339247D01*
X1171087Y341070D01*
X1171143Y341356D01*
X1171310Y341608D01*
X1204200Y374498D01*
X1204200Y446871D01*
X1204247Y447134D01*
X1204406Y447393D01*
X1204654Y447568D01*
X1204950Y447633D01*
X1205248Y447577D01*
X1205501Y447410D01*
X1497041Y155870D01*
X1527134Y155870D01*
X1527420Y155814D01*
X1527673Y155647D01*
X1528962Y154358D01*
X1531888Y154358D01*
X1531964Y154434D01*
X1532194Y154592D01*
X1532490Y154657D01*
X1532788Y154601D01*
X1533041Y154434D01*
X1534414Y153061D01*
X1534577Y152819D01*
X1534638Y152522D01*
X1534638Y132096D01*
X1534582Y131810D01*
X1534414Y131557D01*
X1533126Y130268D01*
X1533126Y127342D01*
X1535195Y125273D01*
X1538121Y125273D01*
X1540190Y127342D01*
X1540190Y130268D01*
X1538901Y131557D01*
X1538738Y131798D01*
X1538678Y132096D01*
X1538678Y151646D01*
X1538729Y151920D01*
X1538892Y152176D01*
X1539142Y152347D01*
X1539440Y152408D01*
X1564529Y152408D01*
X1564815Y152352D01*
X1565068Y152184D01*
X1566357Y150896D01*
X1567487Y150896D01*
X1567773Y150840D01*
X1568026Y150672D01*
X1581526Y137173D01*
X1586662Y137173D01*
X1591308Y141818D01*
X1591308Y331852D01*
X1338548Y584612D01*
X1338395Y584831D01*
X1338325Y585126D01*
X1338376Y585425D01*
X1338539Y585681D01*
X1338789Y585852D01*
X1339086Y585913D01*
X1581149Y585913D01*
X1581435Y585857D01*
X1581688Y585689D01*
X1582977Y584401D01*
X1585903Y584401D01*
X1587972Y586470D01*
X1587972Y589396D01*
X1585903Y591465D01*
X1582977Y591465D01*
X1581688Y590176D01*
X1581447Y590013D01*
X1581149Y589953D01*
X1337677Y589953D01*
X1337391Y590008D01*
X1337139Y590176D01*
X1336669Y590645D01*
X955478Y590645D01*
X955192Y590701D01*
X954939Y590868D01*
X953651Y592157D01*
X950725Y592157D01*
X948541Y589973D01*
X948310Y589815D01*
X948014Y589750D01*
X947716Y589806D01*
X947463Y589973D01*
X939686Y597751D01*
X939528Y597981D01*
X939463Y598277D01*
X939518Y598576D01*
X939686Y598828D01*
X941089Y600232D01*
X941331Y600395D01*
X941628Y600455D01*
X1561759Y600455D01*
X1562045Y600399D01*
X1562298Y600232D01*
X1563587Y598943D01*
X1566513Y598943D01*
X1568582Y601012D01*
X1568582Y603938D01*
X1566513Y606007D01*
X1563587Y606007D01*
X1562298Y604718D01*
X1562057Y604555D01*
X1561759Y604495D01*
X941628Y604495D01*
X941342Y604551D01*
X941089Y604718D01*
X939801Y606007D01*
X936875Y606007D01*
X934691Y603823D01*
X934460Y603665D01*
X934164Y603600D01*
X933866Y603656D01*
X933613Y603823D01*
X923939Y613498D01*
X611269Y613498D01*
X611006Y613544D01*
X610747Y613704D01*
X610572Y613951D01*
X610507Y614247D01*
X610563Y614545D01*
X610730Y614798D01*
X623864Y627932D01*
X624105Y628095D01*
X624402Y628155D01*
X898344Y628155D01*
X898630Y628099D01*
X898883Y627932D01*
X900172Y626643D01*
X903098Y626643D01*
X905167Y628712D01*
X905167Y631638D01*
X903098Y633707D01*
X900172Y633707D01*
X898883Y632418D01*
X898642Y632255D01*
X898344Y632195D01*
X625811Y632195D01*
X625548Y632242D01*
X625290Y632401D01*
X625115Y632649D01*
X625049Y632945D01*
X625105Y633243D01*
X625273Y633496D01*
X626634Y634857D01*
X626875Y635020D01*
X627172Y635080D01*
X881004Y635080D01*
X881347Y635422D01*
X881588Y635585D01*
X881885Y635646D01*
X884401Y635646D01*
X885689Y636934D01*
X885931Y637097D01*
X886228Y637158D01*
X937185Y637158D01*
X937471Y637102D01*
X937724Y636934D01*
X949125Y625533D01*
X949288Y625292D01*
X949348Y624995D01*
X949348Y623172D01*
X951417Y621103D01*
X954343Y621103D01*
X956412Y623172D01*
X956412Y626098D01*
X954343Y628167D01*
X952520Y628167D01*
X952234Y628223D01*
X951982Y628390D01*
X939174Y641198D01*
X886228Y641198D01*
X885942Y641253D01*
X885689Y641421D01*
X884401Y642710D01*
X881475Y642710D01*
X879406Y640641D01*
X879406Y639882D01*
X879354Y639607D01*
X879191Y639352D01*
X878941Y639180D01*
X878644Y639120D01*
X855782Y639120D01*
X855519Y639167D01*
X855261Y639326D01*
X855085Y639574D01*
X855020Y639870D01*
X855076Y640168D01*
X855243Y640421D01*
X855307Y640485D01*
X855307Y643411D01*
X854018Y644699D01*
X853855Y644941D01*
X853795Y645238D01*
X853795Y669127D01*
X853851Y669413D01*
X854018Y669666D01*
X855307Y670955D01*
X855307Y673881D01*
X853238Y675950D01*
X850312Y675950D01*
X848243Y673881D01*
X848243Y670955D01*
X849532Y669666D01*
X849695Y669424D01*
X849755Y669127D01*
X849755Y645238D01*
X849699Y644952D01*
X849532Y644699D01*
X848243Y643411D01*
X848243Y640485D01*
X848307Y640421D01*
X848460Y640201D01*
X848530Y639906D01*
X848479Y639607D01*
X848315Y639352D01*
X848065Y639180D01*
X847768Y639120D01*
X625183Y639120D01*
X592166Y606103D01*
X591925Y605940D01*
X591628Y605880D01*
X458226Y605880D01*
X457963Y605927D01*
X457705Y606086D01*
X457530Y606334D01*
X457464Y606630D01*
X457520Y606928D01*
X457688Y607181D01*
X852954Y1002447D01*
X853196Y1002610D01*
X853493Y1002671D01*
X855316Y1002671D01*
X857385Y1004740D01*
X857385Y1007666D01*
X855316Y1009735D01*
X852390Y1009735D01*
X850321Y1007666D01*
X850321Y1005843D01*
X850265Y1005557D01*
X850097Y1005304D01*
X455744Y610951D01*
X455502Y610788D01*
X455205Y610728D01*
X251922Y610728D01*
X251659Y610774D01*
X251401Y610934D01*
X251225Y611181D01*
X251160Y611477D01*
X251216Y611775D01*
X251383Y612028D01*
X251447Y612092D01*
X251447Y615018D01*
X250158Y616307D01*
X249995Y616548D01*
X249935Y616846D01*
X249935Y696888D01*
X249991Y697174D01*
X250158Y697426D01*
X443687Y890955D01*
X443928Y891118D01*
X444225Y891178D01*
X445356Y891178D01*
X447425Y893247D01*
X447425Y894377D01*
X447480Y894663D01*
X447648Y894916D01*
X605188Y1052456D01*
X605188Y1056903D01*
X605234Y1057166D01*
X605394Y1057424D01*
X605641Y1057600D01*
X605937Y1057665D01*
X606235Y1057609D01*
X606488Y1057442D01*
X606552Y1057378D01*
X609478Y1057378D01*
X610767Y1058667D01*
X611008Y1058830D01*
X611306Y1058890D01*
X673974Y1058890D01*
X674260Y1058834D01*
X674513Y1058667D01*
X675802Y1057378D01*
X678728Y1057378D01*
X680797Y1059447D01*
X680797Y1062373D01*
X678728Y1064442D01*
X675802Y1064442D01*
X674513Y1063153D01*
X674272Y1062990D01*
X673974Y1062930D01*
X619107Y1062930D01*
X618832Y1062981D01*
X618577Y1063145D01*
X618405Y1063395D01*
X618345Y1063692D01*
X618345Y1078367D01*
X614193Y1082519D01*
X614040Y1082739D01*
X613970Y1083034D01*
X614021Y1083333D01*
X614184Y1083588D01*
X614434Y1083760D01*
X614731Y1083820D01*
X829094Y1083820D01*
X829380Y1083764D01*
X829633Y1083597D01*
X830922Y1082308D01*
X833848Y1082308D01*
X835917Y1084377D01*
X835917Y1087303D01*
X833848Y1089372D01*
X830922Y1089372D01*
X829633Y1088083D01*
X829392Y1087920D01*
X829094Y1087860D01*
X209683Y1087860D01*
X112935Y991112D01*
X112935Y600226D01*
X112879Y599940D01*
X112712Y599687D01*
X111423Y598398D01*
X111423Y595472D01*
X113492Y593403D01*
X116418Y593403D01*
X118487Y595472D01*
X118487Y598398D01*
X117198Y599687D01*
X117035Y599928D01*
X116975Y600226D01*
X116975Y989123D01*
X117031Y989409D01*
X117198Y989661D01*
X125484Y997947D01*
X125704Y998100D01*
X125999Y998170D01*
X126298Y998119D01*
X126553Y997956D01*
X126725Y997706D01*
X126785Y997409D01*
X126785Y598841D01*
X126729Y598555D01*
X126562Y598302D01*
X125273Y597013D01*
X125273Y594087D01*
X127342Y592018D01*
X130268Y592018D01*
X130332Y592082D01*
X130551Y592235D01*
X130846Y592305D01*
X131145Y592254D01*
X131401Y592090D01*
X131572Y591840D01*
X131633Y591543D01*
X131633Y589866D01*
X148029Y573469D01*
X148192Y573227D01*
X148253Y572930D01*
X148253Y552443D01*
X148197Y552157D01*
X148029Y551904D01*
X146741Y550616D01*
X146741Y550456D01*
X146694Y550193D01*
X146534Y549934D01*
X146287Y549759D01*
X145991Y549694D01*
X145693Y549750D01*
X145440Y549917D01*
X102090Y593267D01*
X101927Y593508D01*
X101867Y593805D01*
X101867Y595628D01*
X100578Y596917D01*
X100415Y597158D01*
X100355Y597456D01*
X100355Y858844D01*
X41023Y918176D01*
X40860Y918418D01*
X40800Y918715D01*
X40800Y929507D01*
X40856Y929793D01*
X41023Y930046D01*
X42312Y931335D01*
X42312Y934261D01*
X40243Y936330D01*
X37317Y936330D01*
X35248Y934261D01*
X35248Y931335D01*
X36537Y930046D01*
X36700Y929804D01*
X36760Y929507D01*
X36760Y916726D01*
X37432Y916054D01*
X37590Y915824D01*
X37655Y915528D01*
X37599Y915229D01*
X37432Y914977D01*
X35248Y912793D01*
X35248Y909867D01*
X36537Y908578D01*
X36700Y908337D01*
X36760Y908039D01*
X36760Y902183D01*
X38166Y900777D01*
X77597Y861347D01*
X77755Y861116D01*
X77820Y860820D01*
X77764Y860522D01*
X77597Y860269D01*
X75413Y858086D01*
X75413Y855377D01*
X75362Y855102D01*
X75198Y854846D01*
X74948Y854675D01*
X74651Y854615D01*
X72635Y854615D01*
X70566Y852546D01*
X70566Y849620D01*
X71854Y848331D01*
X72017Y848089D01*
X72078Y847792D01*
X72078Y600226D01*
X72022Y599940D01*
X71854Y599687D01*
X70566Y598398D01*
X70566Y595472D01*
X72635Y593403D01*
X75561Y593403D01*
X75624Y593467D01*
X75844Y593620D01*
X76139Y593690D01*
X76438Y593639D01*
X76693Y593475D01*
X76865Y593225D01*
X76925Y592928D01*
X76925Y477681D01*
X109122Y445483D01*
X109285Y445242D01*
X109346Y444945D01*
X109346Y443122D01*
X111415Y441053D01*
X114341Y441053D01*
X116410Y443122D01*
X116410Y446048D01*
X114341Y448117D01*
X112518Y448117D01*
X112232Y448173D01*
X111979Y448340D01*
X81188Y479131D01*
X81025Y479373D01*
X80965Y479670D01*
X80965Y853332D01*
X81021Y853618D01*
X81188Y853871D01*
X82592Y855274D01*
X82822Y855432D01*
X83118Y855497D01*
X83416Y855442D01*
X83669Y855274D01*
X88474Y850469D01*
X88637Y850227D01*
X88698Y849930D01*
X88698Y481836D01*
X125050Y445483D01*
X125213Y445242D01*
X125273Y444945D01*
X125273Y443122D01*
X127342Y441053D01*
X130268Y441053D01*
X132337Y443122D01*
X132337Y446048D01*
X130268Y448117D01*
X128445Y448117D01*
X128159Y448173D01*
X127907Y448340D01*
X92961Y483286D01*
X92798Y483528D01*
X92738Y483825D01*
X92738Y489114D01*
X92784Y489377D01*
X92944Y489635D01*
X93191Y489810D01*
X93487Y489876D01*
X93785Y489820D01*
X94038Y489652D01*
X130590Y453101D01*
X130753Y452859D01*
X130813Y452562D01*
X130813Y450740D01*
X132882Y448671D01*
X135808Y448671D01*
X135872Y448734D01*
X136091Y448887D01*
X136386Y448957D01*
X136685Y448906D01*
X136941Y448743D01*
X137112Y448493D01*
X137173Y448195D01*
X137173Y389733D01*
X171574Y355331D01*
X171737Y355090D01*
X171798Y354793D01*
X171798Y238048D01*
X171742Y237762D01*
X171574Y237509D01*
X170286Y236221D01*
X170286Y233295D01*
X171574Y232006D01*
X171737Y231764D01*
X171798Y231467D01*
X171798Y209656D01*
X171742Y209370D01*
X171574Y209117D01*
X170286Y207828D01*
X170286Y204902D01*
X172355Y202833D01*
X175281Y202833D01*
X177350Y204902D01*
X177350Y207828D01*
X176061Y209117D01*
X175898Y209358D01*
X175838Y209656D01*
X175838Y231467D01*
X175893Y231753D01*
X176061Y232006D01*
X177350Y233295D01*
X177350Y236221D01*
X176061Y237509D01*
X175898Y237751D01*
X175838Y238048D01*
X175838Y353384D01*
X175884Y353647D01*
X176044Y353905D01*
X176291Y354080D01*
X176587Y354146D01*
X176885Y354090D01*
X177138Y353922D01*
X209662Y321399D01*
X209825Y321157D01*
X209885Y320860D01*
X209885Y238048D01*
X209829Y237762D01*
X209662Y237509D01*
X208373Y236221D01*
X208373Y233295D01*
X209662Y232006D01*
X209825Y231764D01*
X209885Y231467D01*
X209885Y201346D01*
X209829Y201060D01*
X209662Y200807D01*
X208373Y199518D01*
X208373Y196592D01*
X209662Y195303D01*
X209825Y195062D01*
X209885Y194764D01*
X209885Y145973D01*
X255253Y100605D01*
X255411Y100375D01*
X255476Y100078D01*
X255421Y99780D01*
X255253Y99527D01*
X235656Y79930D01*
X235414Y79767D01*
X235117Y79707D01*
X233295Y79707D01*
X231226Y77638D01*
X231226Y74712D01*
X233295Y72643D01*
X236221Y72643D01*
X238290Y74712D01*
X238290Y76535D01*
X238345Y76821D01*
X238513Y77073D01*
X263071Y101632D01*
X263313Y101795D01*
X263610Y101855D01*
X799338Y101855D01*
X799613Y101804D01*
X799868Y101640D01*
X800040Y101390D01*
X800100Y101093D01*
X800100Y2762D01*
X800049Y2487D01*
X799885Y2232D01*
X799635Y2060D01*
G37*
%LPC*%
G36*
X475670Y909876D02*
X478596Y909876D01*
X480665Y911945D01*
X480665Y913767D01*
X480720Y914053D01*
X480888Y914306D01*
X497829Y931247D01*
X498070Y931410D01*
X498367Y931470D01*
X502927Y931470D01*
X503213Y931414D01*
X503466Y931247D01*
X504755Y929958D01*
X507681Y929958D01*
X509750Y932027D01*
X509750Y934953D01*
X507681Y937022D01*
X504755Y937022D01*
X503466Y935733D01*
X503224Y935570D01*
X502927Y935510D01*
X496378Y935510D01*
X478031Y917163D01*
X477789Y917000D01*
X477492Y916940D01*
X475670Y916940D01*
X473601Y914871D01*
X473601Y911945D01*
X475670Y909876D01*
G37*
G36*
X1628682Y527616D02*
X1631608Y527616D01*
X1633677Y529685D01*
X1633677Y532611D01*
X1631608Y534680D01*
X1629785Y534680D01*
X1629499Y534735D01*
X1629247Y534903D01*
X1628140Y536010D01*
X1627987Y536229D01*
X1627917Y536524D01*
X1627968Y536823D01*
X1628131Y537079D01*
X1628381Y537250D01*
X1628678Y537311D01*
X1631608Y537311D01*
X1633677Y539380D01*
X1633677Y542306D01*
X1632388Y543594D01*
X1632225Y543836D01*
X1632165Y544133D01*
X1632165Y547247D01*
X1632221Y547533D01*
X1632388Y547786D01*
X1633677Y549075D01*
X1633677Y552001D01*
X1631608Y554070D01*
X1629093Y554070D01*
X1628807Y554125D01*
X1628554Y554293D01*
X1621798Y561048D01*
X1621640Y561279D01*
X1621575Y561575D01*
X1621631Y561873D01*
X1621798Y562126D01*
X1623202Y563529D01*
X1623443Y563692D01*
X1623741Y563753D01*
X1625851Y563753D01*
X1626126Y563701D01*
X1626381Y563538D01*
X1626553Y563288D01*
X1626613Y562991D01*
X1626613Y562925D01*
X1628682Y560856D01*
X1631608Y560856D01*
X1633677Y562925D01*
X1633677Y565851D01*
X1631608Y567920D01*
X1628636Y567920D01*
X1628537Y567853D01*
X1628239Y567793D01*
X1623741Y567793D01*
X1623455Y567848D01*
X1623202Y568016D01*
X1621913Y569305D01*
X1618987Y569305D01*
X1616803Y567121D01*
X1616573Y566963D01*
X1616277Y566898D01*
X1615979Y566953D01*
X1615726Y567121D01*
X1600512Y582335D01*
X1555876Y582335D01*
X1555590Y582391D01*
X1555337Y582558D01*
X1554048Y583847D01*
X1551122Y583847D01*
X1549053Y581778D01*
X1549053Y578852D01*
X1551122Y576783D01*
X1554048Y576783D01*
X1555337Y578072D01*
X1555578Y578235D01*
X1555876Y578295D01*
X1598523Y578295D01*
X1598809Y578239D01*
X1599061Y578072D01*
X1626390Y550743D01*
X1626553Y550502D01*
X1626613Y550205D01*
X1626613Y549075D01*
X1627902Y547786D01*
X1628065Y547544D01*
X1628125Y547247D01*
X1628125Y544133D01*
X1628069Y543847D01*
X1627902Y543594D01*
X1626613Y542306D01*
X1626613Y539376D01*
X1626566Y539113D01*
X1626407Y538854D01*
X1626159Y538679D01*
X1625863Y538614D01*
X1625565Y538670D01*
X1625312Y538837D01*
X1593735Y570414D01*
X1593572Y570656D01*
X1593512Y570953D01*
X1593512Y572776D01*
X1591443Y574845D01*
X1588517Y574845D01*
X1586448Y572776D01*
X1586448Y569850D01*
X1588517Y567781D01*
X1590340Y567781D01*
X1590626Y567725D01*
X1590878Y567557D01*
X1626390Y532046D01*
X1626553Y531804D01*
X1626613Y531507D01*
X1626613Y529685D01*
X1628682Y527616D01*
G37*
G36*
X1648195Y566650D02*
X1652545Y566650D01*
X1655620Y569725D01*
X1655620Y574075D01*
X1652545Y577150D01*
X1648195Y577150D01*
X1645120Y574075D01*
X1645120Y569725D01*
X1648195Y566650D01*
G37*
G36*
X1648195Y508850D02*
X1652545Y508850D01*
X1655620Y511925D01*
X1655620Y516275D01*
X1652545Y519350D01*
X1648195Y519350D01*
X1645120Y516275D01*
X1645120Y511925D01*
X1648195Y508850D01*
G37*
G36*
X1251962Y337178D02*
X1254888Y337178D01*
X1256957Y339247D01*
X1256957Y342173D01*
X1255668Y343462D01*
X1255505Y343703D01*
X1255445Y344001D01*
X1255445Y348499D01*
X1255501Y348785D01*
X1255668Y349038D01*
X1256957Y350327D01*
X1256957Y353253D01*
X1254888Y355322D01*
X1251962Y355322D01*
X1249893Y353253D01*
X1249893Y350327D01*
X1251182Y349038D01*
X1251345Y348797D01*
X1251405Y348499D01*
X1251405Y344001D01*
X1251349Y343715D01*
X1251182Y343462D01*
X1249893Y342173D01*
X1249893Y339247D01*
X1251962Y337178D01*
G37*
%LPD*%
G36*
X471231Y924280D02*
X470936Y924210D01*
X470637Y924261D01*
X470382Y924424D01*
X470210Y924674D01*
X470150Y924971D01*
X470150Y1045154D01*
X470206Y1045440D01*
X470373Y1045693D01*
X471662Y1046982D01*
X471662Y1049908D01*
X470373Y1051197D01*
X470210Y1051438D01*
X470150Y1051736D01*
X470150Y1057592D01*
X469115Y1058627D01*
X468952Y1058868D01*
X468892Y1059165D01*
X468892Y1060577D01*
X468948Y1060863D01*
X469115Y1061116D01*
X482467Y1074467D01*
X482708Y1074630D01*
X483005Y1074691D01*
X484828Y1074691D01*
X486897Y1076760D01*
X486897Y1079686D01*
X486833Y1079749D01*
X486680Y1079969D01*
X486611Y1080264D01*
X486661Y1080563D01*
X486825Y1080818D01*
X487075Y1080990D01*
X487372Y1081050D01*
X609548Y1081050D01*
X609811Y1081003D01*
X610069Y1080844D01*
X610245Y1080596D01*
X610310Y1080300D01*
X610254Y1080002D01*
X610087Y1079749D01*
X607946Y1077608D01*
X607946Y1075785D01*
X607890Y1075499D01*
X607722Y1075247D01*
X601148Y1068672D01*
X601148Y1054445D01*
X601092Y1054159D01*
X600924Y1053906D01*
X471451Y924433D01*
X471231Y924280D01*
G37*
G36*
X133418Y596162D02*
X133123Y596092D01*
X132824Y596143D01*
X132569Y596306D01*
X132397Y596556D01*
X132337Y596853D01*
X132337Y597013D01*
X131048Y598302D01*
X130885Y598543D01*
X130825Y598841D01*
X130825Y996740D01*
X130881Y997026D01*
X131048Y997279D01*
X211007Y1077237D01*
X211248Y1077400D01*
X211545Y1077461D01*
X213368Y1077461D01*
X215437Y1079530D01*
X215437Y1080288D01*
X215488Y1080563D01*
X215652Y1080818D01*
X215902Y1080990D01*
X216199Y1081050D01*
X479358Y1081050D01*
X479621Y1081003D01*
X479879Y1080844D01*
X480055Y1080596D01*
X480120Y1080300D01*
X480064Y1080002D01*
X479897Y1079749D01*
X479833Y1079686D01*
X479833Y1077863D01*
X479777Y1077577D01*
X479610Y1077324D01*
X465566Y1063280D01*
X465324Y1063117D01*
X465027Y1063057D01*
X463897Y1063057D01*
X461828Y1060988D01*
X461828Y1058062D01*
X463897Y1055993D01*
X465348Y1055993D01*
X465623Y1055942D01*
X465878Y1055778D01*
X466050Y1055528D01*
X466110Y1055231D01*
X466110Y1051736D01*
X466054Y1051450D01*
X465887Y1051197D01*
X464598Y1049908D01*
X464598Y1046982D01*
X465887Y1045693D01*
X466050Y1045452D01*
X466110Y1045154D01*
X466110Y923562D01*
X466054Y923276D01*
X465887Y923024D01*
X448617Y905753D01*
X448386Y905595D01*
X448090Y905530D01*
X447792Y905586D01*
X447539Y905753D01*
X445356Y907937D01*
X443533Y907937D01*
X443247Y907993D01*
X442994Y908160D01*
X291835Y1059319D01*
X291672Y1059561D01*
X291612Y1059858D01*
X291612Y1061681D01*
X289543Y1063750D01*
X286617Y1063750D01*
X284548Y1061681D01*
X284548Y1058755D01*
X286617Y1056686D01*
X288440Y1056686D01*
X288726Y1056630D01*
X288978Y1056462D01*
X440137Y905303D01*
X440300Y905062D01*
X440361Y904765D01*
X440361Y902942D01*
X440424Y902878D01*
X440577Y902659D01*
X440647Y902364D01*
X440596Y902065D01*
X440433Y901809D01*
X440183Y901638D01*
X439885Y901578D01*
X438901Y901578D01*
X133638Y596315D01*
X133418Y596162D01*
G37*
G36*
X613840Y1062990D02*
X613543Y1062930D01*
X611306Y1062930D01*
X611020Y1062986D01*
X610767Y1063153D01*
X609478Y1064442D01*
X606552Y1064442D01*
X606488Y1064378D01*
X606269Y1064225D01*
X605974Y1064156D01*
X605675Y1064206D01*
X605419Y1064370D01*
X605248Y1064620D01*
X605188Y1064917D01*
X605188Y1066683D01*
X605243Y1066969D01*
X605411Y1067221D01*
X610579Y1072390D01*
X610821Y1072553D01*
X611118Y1072613D01*
X612941Y1072613D01*
X613004Y1072677D01*
X613224Y1072830D01*
X613519Y1072900D01*
X613818Y1072849D01*
X614073Y1072685D01*
X614245Y1072435D01*
X614305Y1072138D01*
X614305Y1063692D01*
X614254Y1063417D01*
X614090Y1063162D01*
X613840Y1062990D01*
G37*
G36*
X89502Y855844D02*
X89206Y855779D01*
X88908Y855835D01*
X88655Y856002D01*
X41023Y903634D01*
X40860Y903875D01*
X40800Y904172D01*
X40800Y908039D01*
X40856Y908325D01*
X41023Y908578D01*
X42427Y909982D01*
X42657Y910140D01*
X42953Y910205D01*
X43251Y910149D01*
X43504Y909982D01*
X92139Y861347D01*
X92297Y861116D01*
X92362Y860820D01*
X92307Y860522D01*
X92139Y860269D01*
X89956Y858086D01*
X89956Y856541D01*
X89909Y856278D01*
X89749Y856019D01*
X89502Y855844D01*
G37*
G36*
X197200Y594168D02*
X196903Y594108D01*
X141791Y594108D01*
X141505Y594163D01*
X141252Y594331D01*
X139848Y595734D01*
X139690Y595965D01*
X139625Y596261D01*
X139681Y596559D01*
X139848Y596812D01*
X439060Y896023D01*
X439279Y896176D01*
X439574Y896246D01*
X439873Y896195D01*
X440129Y896032D01*
X440300Y895781D01*
X440361Y895484D01*
X440361Y893658D01*
X440305Y893372D01*
X440137Y893119D01*
X245895Y698877D01*
X245895Y616846D01*
X245839Y616560D01*
X245672Y616307D01*
X244383Y615018D01*
X244383Y612092D01*
X244447Y612028D01*
X244600Y611809D01*
X244670Y611514D01*
X244619Y611215D01*
X244455Y610959D01*
X244205Y610788D01*
X243908Y610728D01*
X213838Y610728D01*
X197441Y594331D01*
X197200Y594168D01*
G37*
G36*
X611063Y172930D02*
X610767Y172865D01*
X610469Y172921D01*
X610216Y173088D01*
X520233Y263071D01*
X520070Y263313D01*
X520010Y263610D01*
X520010Y342267D01*
X520066Y342553D01*
X520233Y342806D01*
X521522Y344095D01*
X521522Y347021D01*
X520233Y348309D01*
X520070Y348551D01*
X520010Y348848D01*
X520010Y455117D01*
X463228Y511899D01*
X463075Y512119D01*
X463005Y512414D01*
X463056Y512713D01*
X463219Y512968D01*
X463469Y513140D01*
X463766Y513200D01*
X529907Y513200D01*
X603089Y586382D01*
X603330Y586545D01*
X603627Y586605D01*
X887264Y586605D01*
X887550Y586549D01*
X887803Y586382D01*
X889092Y585093D01*
X892018Y585093D01*
X894087Y587162D01*
X894087Y590088D01*
X892018Y592157D01*
X889092Y592157D01*
X887803Y590868D01*
X887562Y590705D01*
X887264Y590645D01*
X605036Y590645D01*
X604773Y590692D01*
X604515Y590851D01*
X604340Y591099D01*
X604274Y591395D01*
X604330Y591693D01*
X604498Y591946D01*
X609321Y596769D01*
X609563Y596932D01*
X609860Y596993D01*
X891419Y596993D01*
X891705Y596937D01*
X891958Y596769D01*
X893247Y595481D01*
X896173Y595481D01*
X898242Y597550D01*
X898242Y600476D01*
X896173Y602545D01*
X893247Y602545D01*
X891958Y601256D01*
X891717Y601093D01*
X891419Y601033D01*
X659112Y601033D01*
X658849Y601079D01*
X658591Y601239D01*
X658415Y601486D01*
X658350Y601782D01*
X658406Y602080D01*
X658573Y602333D01*
X658637Y602397D01*
X658637Y605323D01*
X658573Y605387D01*
X658420Y605606D01*
X658351Y605901D01*
X658401Y606200D01*
X658565Y606456D01*
X658815Y606627D01*
X659112Y606688D01*
X916325Y606688D01*
X916589Y606641D01*
X916847Y606481D01*
X917022Y606234D01*
X917087Y605938D01*
X917032Y605640D01*
X916864Y605387D01*
X916801Y605323D01*
X916801Y602397D01*
X918089Y601108D01*
X918252Y600867D01*
X918313Y600569D01*
X918313Y514356D01*
X918257Y514070D01*
X918089Y513817D01*
X917581Y513308D01*
X917339Y513145D01*
X917042Y513085D01*
X675736Y513085D01*
X528583Y365933D01*
X528342Y365770D01*
X528045Y365710D01*
X526222Y365710D01*
X524153Y363641D01*
X524153Y360715D01*
X526222Y358646D01*
X529148Y358646D01*
X531217Y360715D01*
X531217Y362537D01*
X531273Y362823D01*
X531440Y363076D01*
X599027Y430663D01*
X599247Y430816D01*
X599542Y430886D01*
X599841Y430835D01*
X600096Y430672D01*
X600268Y430421D01*
X600328Y430124D01*
X600328Y429965D01*
X602397Y427896D01*
X605323Y427896D01*
X606612Y429184D01*
X606853Y429347D01*
X607151Y429408D01*
X610933Y429408D01*
X611196Y429361D01*
X611454Y429201D01*
X611630Y428954D01*
X611695Y428658D01*
X611639Y428360D01*
X611472Y428107D01*
X611408Y428043D01*
X611408Y425117D01*
X613477Y423048D01*
X616403Y423048D01*
X617692Y424337D01*
X617933Y424500D01*
X618231Y424560D01*
X698273Y424560D01*
X698559Y424504D01*
X698811Y424337D01*
X948069Y175079D01*
X948227Y174849D01*
X948292Y174553D01*
X948237Y174254D01*
X948069Y174002D01*
X947848Y173781D01*
X947618Y173623D01*
X947322Y173558D01*
X947024Y173613D01*
X946771Y173781D01*
X834628Y285924D01*
X833222Y287330D01*
X727646Y287330D01*
X727360Y287386D01*
X727107Y287553D01*
X725818Y288842D01*
X722892Y288842D01*
X720823Y286773D01*
X720823Y283847D01*
X722892Y281778D01*
X725818Y281778D01*
X727107Y283067D01*
X727348Y283230D01*
X727646Y283290D01*
X831233Y283290D01*
X831519Y283234D01*
X831771Y283067D01*
X904460Y210378D01*
X904613Y210159D01*
X904683Y209864D01*
X904632Y209565D01*
X904469Y209309D01*
X904218Y209138D01*
X903921Y209078D01*
X815617Y209078D01*
X815354Y209124D01*
X815096Y209284D01*
X814920Y209531D01*
X814855Y209827D01*
X814911Y210125D01*
X815078Y210378D01*
X815142Y210442D01*
X815142Y213368D01*
X813073Y215437D01*
X810147Y215437D01*
X808858Y214148D01*
X808617Y213985D01*
X808319Y213925D01*
X784370Y213925D01*
X784084Y213981D01*
X783831Y214148D01*
X685027Y312953D01*
X614796Y312953D01*
X582598Y280755D01*
X582357Y280592D01*
X582060Y280532D01*
X580237Y280532D01*
X578168Y278463D01*
X578168Y275537D01*
X580237Y273468D01*
X583163Y273468D01*
X585232Y275537D01*
X585232Y277360D01*
X585288Y277646D01*
X585455Y277898D01*
X616246Y308689D01*
X616488Y308852D01*
X616785Y308913D01*
X633093Y308913D01*
X633356Y308866D01*
X633614Y308706D01*
X633790Y308459D01*
X633855Y308163D01*
X633799Y307865D01*
X633632Y307612D01*
X633568Y307548D01*
X633568Y305033D01*
X633512Y304747D01*
X633345Y304494D01*
X612920Y284069D01*
X612920Y175031D01*
X612864Y174745D01*
X612697Y174492D01*
X611293Y173088D01*
X611063Y172930D01*
G37*
G36*
X209413Y586353D02*
X209117Y586288D01*
X208819Y586343D01*
X208566Y586511D01*
X205965Y589112D01*
X205802Y589353D01*
X205742Y589650D01*
X205742Y591473D01*
X203558Y593657D01*
X203400Y593887D01*
X203335Y594183D01*
X203391Y594481D01*
X203558Y594734D01*
X215289Y606464D01*
X215530Y606627D01*
X215827Y606688D01*
X450273Y606688D01*
X450536Y606641D01*
X450794Y606481D01*
X450970Y606234D01*
X451035Y605938D01*
X450979Y605640D01*
X450812Y605387D01*
X450748Y605323D01*
X450748Y602397D01*
X451504Y601641D01*
X451657Y601421D01*
X451727Y601126D01*
X451676Y600827D01*
X451513Y600572D01*
X451263Y600400D01*
X450965Y600340D01*
X268518Y600340D01*
X268232Y600396D01*
X267979Y600563D01*
X266691Y601852D01*
X263765Y601852D01*
X261696Y599783D01*
X261696Y596857D01*
X263765Y594788D01*
X266691Y594788D01*
X267979Y596077D01*
X268221Y596240D01*
X268518Y596300D01*
X588834Y596300D01*
X589097Y596253D01*
X589355Y596094D01*
X589530Y595846D01*
X589596Y595550D01*
X589540Y595252D01*
X589372Y594999D01*
X581779Y587406D01*
X581537Y587243D01*
X581240Y587183D01*
X216581Y587183D01*
X216295Y587238D01*
X216042Y587406D01*
X214753Y588695D01*
X211827Y588695D01*
X209643Y586511D01*
X209413Y586353D01*
G37*
G36*
X1163678Y341900D02*
X1163382Y341835D01*
X1163084Y341891D01*
X1162831Y342058D01*
X1071442Y433448D01*
X607151Y433448D01*
X606865Y433503D01*
X606612Y433671D01*
X605323Y434960D01*
X605163Y434960D01*
X604900Y435006D01*
X604642Y435166D01*
X604467Y435413D01*
X604401Y435709D01*
X604457Y436007D01*
X604625Y436260D01*
X677186Y508822D01*
X677428Y508985D01*
X677725Y509045D01*
X917042Y509045D01*
X917328Y508989D01*
X917581Y508822D01*
X918870Y507533D01*
X921796Y507533D01*
X923865Y509602D01*
X923865Y512528D01*
X922576Y513817D01*
X922413Y514058D01*
X922353Y514356D01*
X922353Y600569D01*
X922408Y600855D01*
X922576Y601108D01*
X923979Y602512D01*
X924210Y602670D01*
X924506Y602735D01*
X924804Y602679D01*
X925057Y602512D01*
X955484Y572084D01*
X955647Y571842D01*
X955708Y571545D01*
X955708Y532300D01*
X955652Y532014D01*
X955484Y531761D01*
X940621Y516898D01*
X940379Y516735D01*
X940082Y516675D01*
X938260Y516675D01*
X936191Y514606D01*
X936191Y511680D01*
X938260Y509611D01*
X941186Y509611D01*
X943255Y511680D01*
X943255Y513502D01*
X943310Y513788D01*
X943478Y514041D01*
X958341Y528904D01*
X958583Y529067D01*
X958880Y529128D01*
X1120613Y529128D01*
X1120876Y529081D01*
X1121134Y528921D01*
X1121310Y528674D01*
X1121375Y528378D01*
X1121319Y528080D01*
X1121152Y527827D01*
X1121088Y527763D01*
X1121088Y524837D01*
X1122377Y523548D01*
X1122540Y523307D01*
X1122600Y523009D01*
X1122600Y459648D01*
X1122544Y459362D01*
X1122377Y459109D01*
X1121088Y457821D01*
X1121088Y454895D01*
X1123157Y452826D01*
X1126083Y452826D01*
X1128152Y454895D01*
X1128152Y457821D01*
X1126863Y459109D01*
X1126700Y459351D01*
X1126640Y459648D01*
X1126640Y523009D01*
X1126696Y523295D01*
X1126863Y523548D01*
X1128152Y524837D01*
X1128152Y527763D01*
X1128088Y527827D01*
X1127935Y528046D01*
X1127866Y528341D01*
X1127916Y528640D01*
X1128080Y528896D01*
X1128330Y529067D01*
X1128627Y529128D01*
X1199558Y529128D01*
X1199821Y529081D01*
X1200079Y528921D01*
X1200255Y528674D01*
X1200320Y528378D01*
X1200264Y528080D01*
X1200097Y527827D01*
X1198648Y526378D01*
X1198648Y523452D01*
X1199937Y522163D01*
X1200100Y521922D01*
X1200160Y521624D01*
X1200160Y488041D01*
X1200104Y487755D01*
X1199937Y487502D01*
X1198648Y486213D01*
X1198648Y483287D01*
X1199937Y481998D01*
X1200100Y481757D01*
X1200160Y481459D01*
X1200160Y376487D01*
X1200104Y376201D01*
X1199937Y375949D01*
X1168453Y344465D01*
X1168212Y344302D01*
X1167915Y344242D01*
X1166092Y344242D01*
X1163908Y342058D01*
X1163678Y341900D01*
G37*
G36*
X136719Y455513D02*
X136423Y455448D01*
X136125Y455503D01*
X135872Y455671D01*
X135808Y455735D01*
X133985Y455735D01*
X133699Y455790D01*
X133447Y455958D01*
X95731Y493674D01*
X95568Y493915D01*
X95508Y494212D01*
X95508Y590158D01*
X95554Y590421D01*
X95714Y590679D01*
X95961Y590855D01*
X96257Y590920D01*
X96555Y590864D01*
X96808Y590697D01*
X96872Y590633D01*
X98695Y590633D01*
X98981Y590577D01*
X99233Y590410D01*
X146531Y543113D01*
X146689Y542882D01*
X146754Y542586D01*
X146698Y542288D01*
X146531Y542035D01*
X137173Y532677D01*
X137173Y456210D01*
X137126Y455946D01*
X136966Y455688D01*
X136719Y455513D01*
G37*
G36*
X359877Y545000D02*
X359579Y544940D01*
X152895Y544940D01*
X152631Y544987D01*
X152373Y545146D01*
X152198Y545394D01*
X152133Y545690D01*
X152188Y545988D01*
X152356Y546241D01*
X153805Y547690D01*
X153805Y550616D01*
X152516Y551904D01*
X152353Y552146D01*
X152293Y552443D01*
X152293Y574919D01*
X150886Y576326D01*
X139848Y587363D01*
X139690Y587594D01*
X139625Y587890D01*
X139681Y588188D01*
X139848Y588441D01*
X141252Y589844D01*
X141493Y590007D01*
X141791Y590068D01*
X197916Y590068D01*
X198191Y590016D01*
X198446Y589853D01*
X198618Y589603D01*
X198678Y589306D01*
X198678Y588547D01*
X200747Y586478D01*
X202570Y586478D01*
X202856Y586422D01*
X203108Y586255D01*
X211068Y578295D01*
X579139Y578295D01*
X579402Y578248D01*
X579660Y578089D01*
X579835Y577841D01*
X579901Y577545D01*
X579845Y577247D01*
X579677Y576994D01*
X549231Y546548D01*
X548990Y546385D01*
X548693Y546325D01*
X364776Y546325D01*
X364490Y546381D01*
X364382Y546452D01*
X361407Y546452D01*
X360118Y545163D01*
X359877Y545000D01*
G37*
G36*
X1258558Y538075D02*
X1258261Y538015D01*
X972791Y538015D01*
X972505Y538071D01*
X972252Y538238D01*
X971743Y538747D01*
X971580Y538988D01*
X971520Y539286D01*
X971520Y565917D01*
X970114Y567323D01*
X953536Y583901D01*
X953378Y584131D01*
X953313Y584427D01*
X953368Y584726D01*
X953536Y584978D01*
X954939Y586382D01*
X955181Y586545D01*
X955478Y586605D01*
X1300724Y586605D01*
X1300987Y586558D01*
X1301245Y586399D01*
X1301420Y586151D01*
X1301486Y585855D01*
X1301430Y585557D01*
X1301262Y585304D01*
X1259023Y543064D01*
X1259023Y538777D01*
X1258971Y538502D01*
X1258808Y538247D01*
X1258558Y538075D01*
G37*
%LPC*%
G36*
X1230495Y557393D02*
X1233421Y557393D01*
X1235490Y559462D01*
X1235490Y562388D01*
X1233421Y564457D01*
X1231598Y564457D01*
X1231312Y564513D01*
X1231059Y564680D01*
X1223248Y572492D01*
X1223085Y572733D01*
X1223025Y573030D01*
X1223025Y574853D01*
X1220956Y576922D01*
X1218030Y576922D01*
X1215961Y574853D01*
X1215961Y571927D01*
X1218030Y569858D01*
X1219852Y569858D01*
X1220138Y569802D01*
X1220391Y569635D01*
X1228202Y561823D01*
X1228365Y561582D01*
X1228426Y561285D01*
X1228426Y559462D01*
X1230495Y557393D01*
G37*
%LPD*%
G36*
X1270376Y536480D02*
X1270081Y536410D01*
X1269782Y536461D01*
X1269527Y536624D01*
X1269355Y536874D01*
X1269295Y537171D01*
X1269295Y538226D01*
X1269158Y538426D01*
X1269093Y538722D01*
X1269148Y539021D01*
X1269316Y539273D01*
X1269422Y539380D01*
X1269422Y542306D01*
X1267238Y544489D01*
X1267080Y544720D01*
X1267015Y545016D01*
X1267071Y545314D01*
X1267238Y545567D01*
X1305284Y583612D01*
X1305525Y583775D01*
X1305822Y583835D01*
X1313820Y583835D01*
X1314084Y583788D01*
X1314342Y583629D01*
X1314517Y583381D01*
X1314582Y583085D01*
X1314527Y582787D01*
X1314359Y582534D01*
X1314296Y582471D01*
X1314296Y580648D01*
X1314240Y580362D01*
X1314072Y580109D01*
X1270596Y536633D01*
X1270376Y536480D01*
G37*
G36*
X1208744Y454825D02*
X1208449Y454756D01*
X1208150Y454806D01*
X1207894Y454970D01*
X1207723Y455220D01*
X1207663Y455517D01*
X1207663Y480828D01*
X1207718Y481114D01*
X1207886Y481366D01*
X1209048Y482528D01*
X1209048Y528366D01*
X1209099Y528640D01*
X1209262Y528896D01*
X1209512Y529067D01*
X1209810Y529128D01*
X1261251Y529128D01*
X1261514Y529081D01*
X1261773Y528921D01*
X1261948Y528674D01*
X1262013Y528378D01*
X1261957Y528080D01*
X1261790Y527827D01*
X1225948Y491985D01*
X1225718Y491827D01*
X1225421Y491762D01*
X1225123Y491817D01*
X1224870Y491985D01*
X1223726Y493130D01*
X1220800Y493130D01*
X1218731Y491061D01*
X1218731Y488135D01*
X1220800Y486066D01*
X1223726Y486066D01*
X1225014Y487354D01*
X1225256Y487517D01*
X1225553Y487578D01*
X1227254Y487578D01*
X1316929Y577252D01*
X1317171Y577415D01*
X1317468Y577476D01*
X1319291Y577476D01*
X1321360Y579545D01*
X1321360Y582471D01*
X1321296Y582534D01*
X1321143Y582754D01*
X1321073Y583049D01*
X1321124Y583348D01*
X1321287Y583603D01*
X1321537Y583775D01*
X1321835Y583835D01*
X1333295Y583835D01*
X1333581Y583779D01*
X1333834Y583612D01*
X1335177Y582269D01*
X1335335Y582039D01*
X1335400Y581743D01*
X1335344Y581444D01*
X1335177Y581192D01*
X1332993Y579008D01*
X1332993Y577185D01*
X1332937Y576899D01*
X1332770Y576647D01*
X1211388Y455265D01*
X1211147Y455102D01*
X1210850Y455042D01*
X1209027Y455042D01*
X1208963Y454978D01*
X1208744Y454825D01*
G37*
G36*
X1586814Y147350D02*
X1586518Y147285D01*
X1586220Y147341D01*
X1585967Y147508D01*
X1585903Y147572D01*
X1584080Y147572D01*
X1583794Y147628D01*
X1583542Y147795D01*
X1568657Y162680D01*
X1532358Y162680D01*
X1531323Y161645D01*
X1531082Y161482D01*
X1530785Y161422D01*
X1528962Y161422D01*
X1527673Y160133D01*
X1527432Y159970D01*
X1527134Y159910D01*
X1499030Y159910D01*
X1498744Y159966D01*
X1498491Y160133D01*
X1211838Y446786D01*
X1211680Y447016D01*
X1211615Y447312D01*
X1211671Y447611D01*
X1211838Y447863D01*
X1214022Y450047D01*
X1214022Y451870D01*
X1214078Y452156D01*
X1214245Y452408D01*
X1335627Y573790D01*
X1335868Y573953D01*
X1336165Y574013D01*
X1337988Y574013D01*
X1340172Y576197D01*
X1340402Y576355D01*
X1340698Y576420D01*
X1340996Y576364D01*
X1341249Y576197D01*
X1587044Y330401D01*
X1587207Y330160D01*
X1587268Y329863D01*
X1587268Y148047D01*
X1587221Y147784D01*
X1587061Y147526D01*
X1586814Y147350D01*
G37*
G36*
X965790Y533228D02*
X965493Y533168D01*
X960510Y533168D01*
X960235Y533219D01*
X959979Y533382D01*
X959808Y533632D01*
X959748Y533930D01*
X959748Y570136D01*
X959794Y570399D01*
X959954Y570658D01*
X960201Y570833D01*
X960497Y570898D01*
X960795Y570842D01*
X961048Y570675D01*
X967257Y564466D01*
X967420Y564225D01*
X967480Y563928D01*
X967480Y539286D01*
X967424Y539000D01*
X967257Y538747D01*
X965968Y537458D01*
X965968Y534532D01*
X966032Y534468D01*
X966185Y534249D01*
X966255Y533954D01*
X966204Y533655D01*
X966040Y533399D01*
X965790Y533228D01*
G37*
G36*
X526830Y520070D02*
X526533Y520010D01*
X364046Y520010D01*
X363783Y520057D01*
X363525Y520216D01*
X363350Y520464D01*
X363284Y520760D01*
X363340Y521058D01*
X363508Y521311D01*
X379411Y537214D01*
X379653Y537377D01*
X379950Y537438D01*
X386587Y537438D01*
X386873Y537382D01*
X387126Y537214D01*
X388415Y535926D01*
X391341Y535926D01*
X393410Y537995D01*
X393410Y540921D01*
X393346Y540984D01*
X393193Y541204D01*
X393123Y541499D01*
X393174Y541798D01*
X393337Y542053D01*
X393587Y542225D01*
X393885Y542285D01*
X547284Y542285D01*
X547547Y542238D01*
X547805Y542079D01*
X547980Y541831D01*
X548046Y541535D01*
X547990Y541237D01*
X547822Y540984D01*
X527071Y520233D01*
X526830Y520070D01*
G37*
G36*
X276837Y440433D02*
X276540Y440373D01*
X275467Y440373D01*
X275204Y440419D01*
X274946Y440579D01*
X274770Y440826D01*
X274705Y441122D01*
X274761Y441420D01*
X274928Y441673D01*
X274992Y441737D01*
X274992Y443560D01*
X275048Y443846D01*
X275215Y444098D01*
X366819Y535702D01*
X367061Y535865D01*
X367358Y535926D01*
X369181Y535926D01*
X371250Y537995D01*
X371250Y540921D01*
X371186Y540984D01*
X371033Y541204D01*
X370963Y541499D01*
X371014Y541798D01*
X371177Y542053D01*
X371427Y542225D01*
X371725Y542285D01*
X376929Y542285D01*
X377192Y542238D01*
X377450Y542079D01*
X377625Y541831D01*
X377691Y541535D01*
X377635Y541237D01*
X377467Y540984D01*
X277079Y440596D01*
X276837Y440433D01*
G37*
G36*
X313349Y211710D02*
X313053Y211645D01*
X312754Y211701D01*
X312502Y211868D01*
X311098Y213272D01*
X310935Y213513D01*
X310875Y213811D01*
X310875Y231467D01*
X310931Y231753D01*
X311098Y232006D01*
X312387Y233295D01*
X312387Y236221D01*
X310318Y238290D01*
X309188Y238290D01*
X308902Y238345D01*
X308649Y238513D01*
X205273Y341889D01*
X205110Y342131D01*
X205050Y342428D01*
X205050Y344251D01*
X202981Y346320D01*
X200055Y346320D01*
X199991Y346256D01*
X199771Y346103D01*
X199476Y346033D01*
X199177Y346084D01*
X198922Y346247D01*
X198750Y346497D01*
X198690Y346795D01*
X198690Y381019D01*
X152494Y427215D01*
X148051Y427215D01*
X146323Y425488D01*
X146082Y425325D01*
X145785Y425265D01*
X142577Y425265D01*
X142513Y425201D01*
X142294Y425048D01*
X141999Y424978D01*
X141700Y425029D01*
X141444Y425192D01*
X141273Y425442D01*
X141213Y425740D01*
X141213Y530688D01*
X141268Y530974D01*
X141436Y531226D01*
X150886Y540677D01*
X151128Y540840D01*
X151425Y540900D01*
X359579Y540900D01*
X359865Y540844D01*
X360118Y540677D01*
X361407Y539388D01*
X362952Y539388D01*
X363215Y539341D01*
X363473Y539182D01*
X363648Y538934D01*
X363714Y538638D01*
X363658Y538340D01*
X363490Y538087D01*
X272358Y446955D01*
X272117Y446792D01*
X271820Y446732D01*
X269997Y446732D01*
X267928Y444663D01*
X267928Y442520D01*
X267877Y442245D01*
X267713Y441989D01*
X267463Y441818D01*
X267166Y441758D01*
X250541Y441758D01*
X232759Y423976D01*
X232517Y423813D01*
X232220Y423753D01*
X185418Y423753D01*
X185132Y423808D01*
X184879Y423976D01*
X183591Y425265D01*
X180665Y425265D01*
X178596Y423196D01*
X178596Y420270D01*
X180044Y418821D01*
X180197Y418601D01*
X180267Y418306D01*
X180216Y418007D01*
X180053Y417752D01*
X179803Y417580D01*
X179505Y417520D01*
X179186Y417520D01*
X178900Y417576D01*
X178647Y417743D01*
X177358Y419032D01*
X174432Y419032D01*
X172363Y416963D01*
X172363Y414037D01*
X174432Y411968D01*
X177358Y411968D01*
X178647Y413257D01*
X178888Y413420D01*
X179186Y413480D01*
X421965Y413480D01*
X422251Y413424D01*
X422504Y413257D01*
X440830Y394931D01*
X440993Y394689D01*
X441053Y394392D01*
X441053Y392570D01*
X443122Y390501D01*
X446048Y390501D01*
X446112Y390564D01*
X446331Y390717D01*
X446626Y390787D01*
X446925Y390736D01*
X447181Y390573D01*
X447352Y390323D01*
X447413Y390025D01*
X447413Y346017D01*
X447357Y345731D01*
X447189Y345479D01*
X313579Y211868D01*
X313349Y211710D01*
G37*
G36*
X412376Y473475D02*
X412080Y473410D01*
X411782Y473466D01*
X411529Y473633D01*
X409346Y475817D01*
X406420Y475817D01*
X405131Y474528D01*
X404889Y474365D01*
X404592Y474305D01*
X329458Y474305D01*
X329172Y474361D01*
X328919Y474528D01*
X327516Y475932D01*
X327358Y476162D01*
X327293Y476458D01*
X327348Y476756D01*
X327516Y477009D01*
X363484Y512977D01*
X363725Y513140D01*
X364022Y513200D01*
X450334Y513200D01*
X450597Y513153D01*
X450855Y512994D01*
X451030Y512746D01*
X451096Y512450D01*
X451040Y512152D01*
X450872Y511899D01*
X412607Y473633D01*
X412376Y473475D01*
G37*
G36*
X255009Y107252D02*
X254713Y107186D01*
X254415Y107242D01*
X254162Y107410D01*
X214148Y147424D01*
X213985Y147665D01*
X213925Y147962D01*
X213925Y194764D01*
X213981Y195050D01*
X214148Y195303D01*
X215437Y196592D01*
X215437Y198736D01*
X215488Y199010D01*
X215652Y199266D01*
X215902Y199437D01*
X216199Y199498D01*
X306922Y199498D01*
X359422Y251998D01*
X359642Y252151D01*
X359937Y252221D01*
X360236Y252170D01*
X360491Y252007D01*
X360663Y251756D01*
X360723Y251459D01*
X360723Y249222D01*
X362012Y247933D01*
X362175Y247692D01*
X362235Y247394D01*
X362235Y230370D01*
X362179Y230084D01*
X362012Y229831D01*
X355458Y223278D01*
X355217Y223115D01*
X354920Y223055D01*
X353790Y223055D01*
X351721Y220986D01*
X351721Y218060D01*
X353009Y216771D01*
X353172Y216529D01*
X353233Y216232D01*
X353233Y211352D01*
X353181Y211077D01*
X353018Y210821D01*
X352768Y210650D01*
X352471Y210590D01*
X351020Y210590D01*
X348951Y208521D01*
X348951Y205595D01*
X351020Y203526D01*
X353946Y203526D01*
X356015Y205595D01*
X356015Y207417D01*
X356070Y207703D01*
X356238Y207956D01*
X357273Y208991D01*
X357273Y216232D01*
X357328Y216518D01*
X357496Y216771D01*
X358785Y218060D01*
X358785Y220575D01*
X358840Y220861D01*
X359008Y221113D01*
X366275Y228381D01*
X366275Y247394D01*
X366331Y247680D01*
X366498Y247933D01*
X367787Y249222D01*
X367787Y252148D01*
X365718Y254217D01*
X363481Y254217D01*
X363218Y254264D01*
X362959Y254423D01*
X362784Y254671D01*
X362719Y254967D01*
X362775Y255265D01*
X362942Y255518D01*
X451453Y344028D01*
X451453Y498079D01*
X451508Y498365D01*
X451676Y498618D01*
X452965Y499907D01*
X452965Y502833D01*
X450781Y505017D01*
X450623Y505247D01*
X450558Y505543D01*
X450613Y505841D01*
X450781Y506094D01*
X453602Y508915D01*
X453822Y509068D01*
X454117Y509138D01*
X454416Y509087D01*
X454671Y508924D01*
X454843Y508674D01*
X454903Y508377D01*
X454903Y506140D01*
X456192Y504851D01*
X456355Y504609D01*
X456415Y504312D01*
X456415Y109427D01*
X456364Y109152D01*
X456200Y108897D01*
X455950Y108725D01*
X455653Y108665D01*
X262286Y108665D01*
X262000Y108721D01*
X261747Y108888D01*
X260458Y110177D01*
X257532Y110177D01*
X255463Y108108D01*
X255463Y107948D01*
X255416Y107685D01*
X255257Y107427D01*
X255009Y107252D01*
G37*
G36*
X667383Y108725D02*
X667086Y108665D01*
X461217Y108665D01*
X460942Y108716D01*
X460687Y108880D01*
X460515Y109130D01*
X460455Y109427D01*
X460455Y504312D01*
X460511Y504598D01*
X460678Y504851D01*
X462082Y506254D01*
X462312Y506412D01*
X462608Y506477D01*
X462906Y506422D01*
X463159Y506254D01*
X515747Y453666D01*
X515910Y453425D01*
X515970Y453128D01*
X515970Y348848D01*
X515914Y348562D01*
X515747Y348309D01*
X514458Y347021D01*
X514458Y344095D01*
X515747Y342806D01*
X515910Y342564D01*
X515970Y342267D01*
X515970Y261621D01*
X667625Y109966D01*
X667778Y109746D01*
X667848Y109451D01*
X667797Y109152D01*
X667634Y108897D01*
X667383Y108725D01*
G37*
G36*
X446959Y397343D02*
X446663Y397278D01*
X446365Y397333D01*
X446112Y397501D01*
X446048Y397565D01*
X444225Y397565D01*
X443939Y397620D01*
X443687Y397788D01*
X423954Y417520D01*
X184750Y417520D01*
X184486Y417567D01*
X184228Y417726D01*
X184053Y417974D01*
X183988Y418270D01*
X184043Y418568D01*
X184211Y418821D01*
X184879Y419489D01*
X185121Y419652D01*
X185418Y419713D01*
X234209Y419713D01*
X243191Y428694D01*
X243421Y428852D01*
X243717Y428917D01*
X244016Y428862D01*
X244268Y428694D01*
X246452Y426511D01*
X249378Y426511D01*
X250667Y427799D01*
X250908Y427962D01*
X251206Y428023D01*
X278529Y428023D01*
X321443Y470937D01*
X321674Y471095D01*
X321970Y471160D01*
X322268Y471104D01*
X322521Y470937D01*
X324705Y468753D01*
X326721Y468753D01*
X326996Y468702D01*
X327251Y468538D01*
X327423Y468288D01*
X327483Y467991D01*
X327483Y465975D01*
X329552Y463906D01*
X332478Y463906D01*
X333767Y465194D01*
X334008Y465357D01*
X334306Y465418D01*
X410104Y465418D01*
X444708Y500022D01*
X444939Y500180D01*
X445235Y500245D01*
X445533Y500189D01*
X445786Y500022D01*
X447189Y498618D01*
X447352Y498377D01*
X447413Y498079D01*
X447413Y398040D01*
X447366Y397776D01*
X447206Y397518D01*
X446959Y397343D01*
G37*
G36*
X255285Y432123D02*
X254988Y432063D01*
X251206Y432063D01*
X250920Y432118D01*
X250667Y432286D01*
X249263Y433689D01*
X249105Y433920D01*
X249040Y434216D01*
X249096Y434514D01*
X249263Y434767D01*
X251991Y437494D01*
X252233Y437657D01*
X252530Y437718D01*
X254988Y437718D01*
X255251Y437671D01*
X255509Y437511D01*
X255685Y437264D01*
X255750Y436968D01*
X255694Y436670D01*
X255527Y436417D01*
X255463Y436353D01*
X255463Y433427D01*
X255527Y433363D01*
X255680Y433144D01*
X255750Y432849D01*
X255699Y432550D01*
X255535Y432294D01*
X255285Y432123D01*
G37*
G36*
X789746Y339805D02*
X789450Y339739D01*
X789152Y339795D01*
X788899Y339963D01*
X700755Y428107D01*
X700602Y428326D01*
X700532Y428621D01*
X700583Y428920D01*
X700747Y429176D01*
X700997Y429347D01*
X701294Y429408D01*
X770208Y429408D01*
X770471Y429361D01*
X770729Y429201D01*
X770905Y428954D01*
X770970Y428658D01*
X770914Y428360D01*
X770747Y428107D01*
X770683Y428043D01*
X770683Y425117D01*
X772752Y423048D01*
X774575Y423048D01*
X774861Y422992D01*
X775113Y422825D01*
X790872Y407067D01*
X791030Y406836D01*
X791095Y406540D01*
X791039Y406242D01*
X790872Y405989D01*
X788688Y403806D01*
X788688Y400880D01*
X789977Y399591D01*
X790140Y399349D01*
X790200Y399052D01*
X790200Y340501D01*
X790153Y340238D01*
X789994Y339980D01*
X789746Y339805D01*
G37*
G36*
X194196Y343267D02*
X193900Y343202D01*
X193602Y343258D01*
X193349Y343425D01*
X152516Y384259D01*
X152353Y384500D01*
X152293Y384797D01*
X152293Y417057D01*
X152348Y417343D01*
X152516Y417596D01*
X153919Y418999D01*
X154150Y419157D01*
X154446Y419222D01*
X154744Y419167D01*
X154997Y418999D01*
X194427Y379569D01*
X194590Y379327D01*
X194650Y379030D01*
X194650Y343964D01*
X194603Y343701D01*
X194444Y343442D01*
X194196Y343267D01*
G37*
G36*
X147799Y385510D02*
X147503Y385444D01*
X147205Y385500D01*
X146952Y385668D01*
X141436Y391184D01*
X141273Y391425D01*
X141213Y391722D01*
X141213Y417725D01*
X141259Y417989D01*
X141419Y418247D01*
X141666Y418422D01*
X141962Y418487D01*
X142260Y418432D01*
X142513Y418264D01*
X142577Y418201D01*
X145503Y418201D01*
X145925Y418622D01*
X146155Y418780D01*
X146452Y418846D01*
X146750Y418790D01*
X147003Y418622D01*
X148029Y417596D01*
X148192Y417354D01*
X148253Y417057D01*
X148253Y386206D01*
X148206Y385943D01*
X148046Y385685D01*
X147799Y385510D01*
G37*
G36*
X228970Y203598D02*
X228673Y203538D01*
X214687Y203538D01*
X214412Y203589D01*
X214157Y203752D01*
X213985Y204002D01*
X213925Y204300D01*
X213925Y231467D01*
X213981Y231753D01*
X214148Y232006D01*
X215437Y233295D01*
X215437Y236221D01*
X214148Y237509D01*
X213985Y237751D01*
X213925Y238048D01*
X213925Y319451D01*
X213972Y319714D01*
X214131Y319973D01*
X214379Y320148D01*
X214675Y320213D01*
X214973Y320157D01*
X215226Y319990D01*
X230437Y304779D01*
X230600Y304537D01*
X230660Y304240D01*
X230660Y238048D01*
X230604Y237762D01*
X230437Y237509D01*
X229148Y236221D01*
X229148Y233295D01*
X230437Y232006D01*
X230600Y231764D01*
X230660Y231467D01*
X230660Y209656D01*
X230604Y209370D01*
X230437Y209117D01*
X229148Y207828D01*
X229148Y204902D01*
X229212Y204838D01*
X229365Y204619D01*
X229435Y204324D01*
X229384Y204025D01*
X229220Y203769D01*
X228970Y203598D01*
G37*
G36*
X267058Y203598D02*
X266760Y203538D01*
X236687Y203538D01*
X236424Y203584D01*
X236166Y203744D01*
X235990Y203991D01*
X235925Y204287D01*
X235981Y204585D01*
X236148Y204838D01*
X236212Y204902D01*
X236212Y207828D01*
X234923Y209117D01*
X234760Y209358D01*
X234700Y209656D01*
X234700Y231467D01*
X234756Y231753D01*
X234923Y232006D01*
X236212Y233295D01*
X236212Y236221D01*
X234923Y237509D01*
X234760Y237751D01*
X234700Y238048D01*
X234700Y304909D01*
X234747Y305172D01*
X234906Y305430D01*
X235154Y305605D01*
X235450Y305671D01*
X235748Y305615D01*
X236001Y305447D01*
X269419Y272029D01*
X269577Y271799D01*
X269642Y271503D01*
X269587Y271204D01*
X269419Y270952D01*
X267236Y268768D01*
X267236Y265842D01*
X268524Y264553D01*
X268687Y264312D01*
X268748Y264014D01*
X268748Y238048D01*
X268692Y237762D01*
X268524Y237509D01*
X267236Y236221D01*
X267236Y233295D01*
X268524Y232006D01*
X268687Y231764D01*
X268748Y231467D01*
X268748Y209656D01*
X268692Y209370D01*
X268524Y209117D01*
X267236Y207828D01*
X267236Y204902D01*
X267299Y204838D01*
X267452Y204619D01*
X267522Y204324D01*
X267471Y204025D01*
X267308Y203769D01*
X267058Y203598D01*
G37*
G36*
X823828Y111495D02*
X823530Y111435D01*
X672185Y111435D01*
X671899Y111491D01*
X671646Y111658D01*
X616288Y167016D01*
X616130Y167246D01*
X616065Y167542D01*
X616121Y167841D01*
X616288Y168093D01*
X618472Y170277D01*
X618472Y173203D01*
X617183Y174492D01*
X617020Y174733D01*
X616960Y175031D01*
X616960Y282080D01*
X617016Y282366D01*
X617183Y282619D01*
X636894Y302330D01*
X637136Y302493D01*
X637433Y302553D01*
X638563Y302553D01*
X639852Y303842D01*
X640093Y304005D01*
X640391Y304065D01*
X681653Y304065D01*
X681939Y304009D01*
X682191Y303842D01*
X692900Y293133D01*
X693063Y292892D01*
X693123Y292595D01*
X693123Y290772D01*
X695192Y288703D01*
X698118Y288703D01*
X700302Y290887D01*
X700532Y291045D01*
X700828Y291110D01*
X701126Y291054D01*
X701379Y290887D01*
X781887Y210378D01*
X782040Y210159D01*
X782110Y209864D01*
X782059Y209565D01*
X781896Y209309D01*
X781646Y209138D01*
X781349Y209078D01*
X769888Y209078D01*
X769602Y209133D01*
X769349Y209301D01*
X768061Y210590D01*
X765135Y210590D01*
X763066Y208521D01*
X763066Y205595D01*
X765135Y203526D01*
X768061Y203526D01*
X769349Y204814D01*
X769591Y204977D01*
X769888Y205038D01*
X811065Y205038D01*
X811329Y204991D01*
X811587Y204831D01*
X811762Y204584D01*
X811827Y204288D01*
X811772Y203990D01*
X811604Y203737D01*
X811541Y203673D01*
X811541Y200747D01*
X812829Y199458D01*
X812992Y199217D01*
X813053Y198919D01*
X813053Y177828D01*
X843865Y147016D01*
X844028Y146774D01*
X844088Y146477D01*
X844088Y145065D01*
X844032Y144779D01*
X843865Y144527D01*
X831750Y132412D01*
X831750Y117553D01*
X831694Y117267D01*
X831527Y117014D01*
X831193Y116680D01*
X830962Y116522D01*
X830666Y116457D01*
X830368Y116513D01*
X830115Y116680D01*
X829781Y117014D01*
X829618Y117256D01*
X829558Y117553D01*
X829558Y133824D01*
X829613Y134110D01*
X829781Y134363D01*
X831070Y135652D01*
X831070Y138578D01*
X829001Y140647D01*
X826075Y140647D01*
X824006Y138578D01*
X824006Y135652D01*
X825294Y134363D01*
X825457Y134122D01*
X825518Y133824D01*
X825518Y117553D01*
X825462Y117267D01*
X825294Y117014D01*
X824006Y115726D01*
X824006Y112800D01*
X824069Y112736D01*
X824222Y112516D01*
X824292Y112221D01*
X824241Y111922D01*
X824078Y111667D01*
X823828Y111495D01*
G37*
%LPC*%
G36*
X652257Y173056D02*
X655183Y173056D01*
X657252Y175125D01*
X657252Y178051D01*
X655963Y179339D01*
X655800Y179581D01*
X655740Y179878D01*
X655740Y198227D01*
X655796Y198513D01*
X655963Y198766D01*
X657252Y200055D01*
X657252Y202981D01*
X655183Y205050D01*
X652257Y205050D01*
X650188Y202981D01*
X650188Y200055D01*
X651477Y198766D01*
X651640Y198524D01*
X651700Y198227D01*
X651700Y179878D01*
X651644Y179592D01*
X651477Y179339D01*
X650188Y178051D01*
X650188Y175125D01*
X652257Y173056D01*
G37*
%LPD*%
G36*
X305230Y203598D02*
X304933Y203538D01*
X274775Y203538D01*
X274511Y203584D01*
X274253Y203744D01*
X274078Y203991D01*
X274013Y204287D01*
X274068Y204585D01*
X274236Y204838D01*
X274300Y204902D01*
X274300Y207828D01*
X273011Y209117D01*
X272848Y209358D01*
X272788Y209656D01*
X272788Y231467D01*
X272843Y231753D01*
X273011Y232006D01*
X274300Y233295D01*
X274300Y236221D01*
X273011Y237509D01*
X272848Y237751D01*
X272788Y238048D01*
X272788Y264014D01*
X272843Y264300D01*
X273011Y264553D01*
X274414Y265957D01*
X274645Y266115D01*
X274941Y266180D01*
X275239Y266124D01*
X275492Y265957D01*
X305100Y236348D01*
X305263Y236107D01*
X305323Y235810D01*
X305323Y233295D01*
X306612Y232006D01*
X306775Y231764D01*
X306835Y231467D01*
X306835Y213811D01*
X306779Y213525D01*
X306612Y213272D01*
X305323Y211983D01*
X305323Y209057D01*
X307507Y206873D01*
X307665Y206643D01*
X307730Y206347D01*
X307674Y206049D01*
X307507Y205796D01*
X305471Y203761D01*
X305230Y203598D01*
G37*
G36*
X855075Y105955D02*
X854778Y105895D01*
X845334Y105895D01*
X845071Y105942D01*
X844812Y106101D01*
X844637Y106349D01*
X844572Y106645D01*
X844628Y106943D01*
X844795Y107196D01*
X895889Y158290D01*
X896131Y158453D01*
X896428Y158513D01*
X898251Y158513D01*
X900320Y160582D01*
X900320Y163508D01*
X898251Y165577D01*
X895325Y165577D01*
X893256Y163508D01*
X893256Y161685D01*
X893200Y161399D01*
X893032Y161147D01*
X879352Y147466D01*
X879121Y147308D01*
X878825Y147243D01*
X878527Y147298D01*
X878274Y147466D01*
X876871Y148869D01*
X876708Y149111D01*
X876648Y149408D01*
X876648Y149813D01*
X876703Y150099D01*
X876871Y150351D01*
X896582Y170062D01*
X896823Y170225D01*
X897120Y170286D01*
X898943Y170286D01*
X901012Y172355D01*
X901012Y175281D01*
X900948Y175344D01*
X900795Y175564D01*
X900726Y175859D01*
X900776Y176158D01*
X900940Y176413D01*
X901190Y176585D01*
X901487Y176645D01*
X901807Y176645D01*
X902093Y176589D01*
X902346Y176422D01*
X903635Y175133D01*
X906561Y175133D01*
X908630Y177202D01*
X908630Y180128D01*
X906561Y182197D01*
X903635Y182197D01*
X902346Y180908D01*
X902104Y180745D01*
X901807Y180685D01*
X895258Y180685D01*
X867561Y152988D01*
X867341Y152835D01*
X867046Y152765D01*
X866747Y152816D01*
X866492Y152979D01*
X866320Y153229D01*
X866260Y153526D01*
X866260Y158123D01*
X866316Y158409D01*
X866483Y158661D01*
X893812Y185990D01*
X894053Y186153D01*
X894350Y186213D01*
X896173Y186213D01*
X898242Y188282D01*
X898242Y191208D01*
X896173Y193277D01*
X893247Y193277D01*
X891178Y191208D01*
X891178Y189385D01*
X891122Y189099D01*
X890955Y188847D01*
X862713Y160605D01*
X862494Y160452D01*
X862199Y160382D01*
X861900Y160433D01*
X861644Y160597D01*
X861473Y160847D01*
X861413Y161144D01*
X861413Y185762D01*
X861468Y186048D01*
X861636Y186301D01*
X862925Y187590D01*
X862925Y190516D01*
X860856Y192585D01*
X857930Y192585D01*
X855861Y190516D01*
X855861Y187590D01*
X857149Y186301D01*
X857312Y186059D01*
X857373Y185762D01*
X857373Y143886D01*
X857510Y143686D01*
X857575Y143390D01*
X857519Y143092D01*
X857352Y142839D01*
X857246Y142733D01*
X857246Y139807D01*
X859429Y137623D01*
X859587Y137393D01*
X859652Y137097D01*
X859597Y136799D01*
X859429Y136546D01*
X838494Y115611D01*
X838264Y115453D01*
X837968Y115388D01*
X837669Y115443D01*
X837417Y115611D01*
X836013Y117014D01*
X835850Y117256D01*
X835790Y117553D01*
X835790Y130423D01*
X835846Y130709D01*
X836013Y130961D01*
X847414Y142362D01*
X847656Y142525D01*
X847953Y142586D01*
X849083Y142586D01*
X851152Y144655D01*
X851152Y147581D01*
X849083Y149650D01*
X847260Y149650D01*
X846974Y149705D01*
X846722Y149873D01*
X821961Y174633D01*
X821803Y174864D01*
X821738Y175160D01*
X821793Y175458D01*
X821961Y175711D01*
X823364Y177114D01*
X823606Y177277D01*
X823903Y177338D01*
X834634Y177338D01*
X834920Y177282D01*
X835173Y177114D01*
X836462Y175826D01*
X839388Y175826D01*
X841457Y177895D01*
X841457Y180821D01*
X839388Y182890D01*
X836462Y182890D01*
X835173Y181601D01*
X834932Y181438D01*
X834634Y181378D01*
X823903Y181378D01*
X823617Y181433D01*
X823364Y181601D01*
X822076Y182890D01*
X819150Y182890D01*
X818393Y182133D01*
X818174Y181980D01*
X817879Y181911D01*
X817580Y181961D01*
X817324Y182125D01*
X817153Y182375D01*
X817093Y182672D01*
X817093Y198919D01*
X817148Y199205D01*
X817316Y199458D01*
X818605Y200747D01*
X818605Y203673D01*
X818541Y203737D01*
X818388Y203956D01*
X818318Y204251D01*
X818369Y204550D01*
X818532Y204806D01*
X818782Y204977D01*
X819080Y205038D01*
X905330Y205038D01*
X905616Y204982D01*
X905869Y204814D01*
X927987Y182697D01*
X928145Y182466D01*
X928210Y182170D01*
X928154Y181872D01*
X927987Y181619D01*
X926583Y180216D01*
X926342Y180053D01*
X926044Y179993D01*
X922958Y179993D01*
X883143Y140178D01*
X882902Y140015D01*
X882605Y139955D01*
X880782Y139955D01*
X878713Y137886D01*
X878713Y134960D01*
X880897Y132776D01*
X881055Y132545D01*
X881120Y132249D01*
X881064Y131951D01*
X880897Y131698D01*
X855316Y106118D01*
X855075Y105955D01*
G37*
G36*
X945076Y164125D02*
X944779Y164065D01*
X917391Y164065D01*
X917105Y164121D01*
X916852Y164288D01*
X915448Y165692D01*
X915290Y165922D01*
X915225Y166218D01*
X915281Y166516D01*
X915448Y166769D01*
X924409Y175729D01*
X924650Y175892D01*
X924947Y175953D01*
X926044Y175953D01*
X926330Y175897D01*
X926583Y175729D01*
X927872Y174441D01*
X930798Y174441D01*
X932982Y176624D01*
X933212Y176782D01*
X933508Y176847D01*
X933806Y176792D01*
X934059Y176624D01*
X945317Y165366D01*
X945470Y165146D01*
X945540Y164851D01*
X945489Y164552D01*
X945326Y164297D01*
X945076Y164125D01*
G37*
G36*
X1564827Y156508D02*
X1564529Y156448D01*
X1540952Y156448D01*
X1540677Y156499D01*
X1540421Y156662D01*
X1540250Y156912D01*
X1540190Y157210D01*
X1540190Y157276D01*
X1540126Y157339D01*
X1539973Y157559D01*
X1539903Y157854D01*
X1539954Y158153D01*
X1540117Y158408D01*
X1540367Y158580D01*
X1540665Y158640D01*
X1565198Y158640D01*
X1565461Y158593D01*
X1565719Y158434D01*
X1565895Y158186D01*
X1565960Y157890D01*
X1565904Y157592D01*
X1565737Y157339D01*
X1565068Y156671D01*
X1564827Y156508D01*
G37*
G36*
X840532Y108725D02*
X840235Y108665D01*
X839101Y108665D01*
X838838Y108712D01*
X838580Y108871D01*
X838405Y109119D01*
X838339Y109415D01*
X838395Y109713D01*
X838563Y109966D01*
X871108Y142511D01*
X871108Y142803D01*
X871154Y143066D01*
X871314Y143324D01*
X871561Y143500D01*
X871857Y143565D01*
X872155Y143509D01*
X872408Y143342D01*
X873279Y142471D01*
X873437Y142240D01*
X873502Y141944D01*
X873447Y141646D01*
X873279Y141393D01*
X840774Y108888D01*
X840532Y108725D01*
G37*
D10*
X938338Y602475D02*
X1565050Y602475D01*
X894710Y599013D02*
X608708Y599013D01*
X527685Y517990D01*
X361485Y517990D01*
X278385Y434890D01*
X258995Y434890D01*
D11*
X1565050Y602475D03*
X938338Y602475D03*
X894710Y599013D03*
X258995Y434890D03*
D10*
X1336525Y587933D02*
X1584440Y587933D01*
X1336525Y587933D02*
X1335833Y588625D01*
X952188Y588625D01*
X890555Y588625D02*
X602475Y588625D01*
X529070Y515220D01*
X362870Y515220D01*
X277693Y430043D01*
X247915Y430043D01*
D11*
X1584440Y587933D03*
X952188Y588625D03*
X890555Y588625D03*
X247915Y430043D03*
D10*
X1630145Y540843D02*
X1630145Y550538D01*
X1599675Y580315D02*
X1552585Y580315D01*
X1599675Y580315D02*
X1629453Y550538D01*
X1630145Y550538D01*
D11*
X1630145Y540843D03*
X1630145Y550538D03*
X1552585Y580315D03*
D10*
X74098Y596935D02*
X74098Y851083D01*
X497215Y933490D02*
X506218Y933490D01*
X497215Y933490D02*
X477133Y913408D01*
X637100Y306085D02*
X682805Y306085D01*
X696655Y292235D01*
X1202180Y484750D02*
X1202180Y524915D01*
X1202180Y484750D02*
X1202180Y375335D01*
X1167555Y340710D01*
X614940Y283233D02*
X614940Y171740D01*
X614940Y283233D02*
X637100Y305393D01*
X637100Y306085D01*
D11*
X74098Y596935D03*
X74098Y851083D03*
X506218Y933490D03*
X477133Y913408D03*
X637100Y306085D03*
X696655Y292235D03*
X1202180Y524915D03*
X1202180Y484750D03*
X1167555Y340710D03*
X614940Y171740D03*
D10*
X1589980Y571313D02*
X1630145Y531148D01*
D11*
X1589980Y571313D03*
X1630145Y531148D03*
D10*
X1628760Y565773D02*
X1620450Y565773D01*
X1628760Y565773D02*
X1630145Y564388D01*
D11*
X1620450Y565773D03*
X1630145Y564388D03*
D10*
X355253Y219523D02*
X355253Y209828D01*
X352483Y207058D01*
X364255Y229218D02*
X364255Y250685D01*
X364255Y229218D02*
X355253Y220215D01*
X355253Y219523D01*
X78945Y478518D02*
X78945Y856623D01*
X78945Y478518D02*
X112878Y444585D01*
D11*
X355253Y219523D03*
X352483Y207058D03*
X364255Y250685D03*
X78945Y856623D03*
X112878Y444585D03*
D10*
X855930Y103875D02*
X894018Y141963D01*
X855930Y103875D02*
X262458Y103875D01*
X258649Y100066D02*
X234758Y76175D01*
X258649Y100066D02*
X262458Y103875D01*
X211905Y146810D02*
X211905Y198055D01*
X211905Y201518D01*
X211905Y234758D01*
X211905Y146810D02*
X258649Y100066D01*
X449433Y344865D02*
X449433Y501370D01*
X449433Y344865D02*
X306085Y201518D01*
X211905Y201518D01*
X150273Y383645D02*
X150273Y420348D01*
X150273Y383645D02*
X211905Y322013D01*
X211905Y234758D01*
X93488Y493060D02*
X93488Y856623D01*
X93488Y493060D02*
X134345Y452203D01*
D11*
X894018Y141963D03*
X234758Y76175D03*
X211905Y234758D03*
X449433Y501370D03*
X211905Y198055D03*
X150273Y420348D03*
X93488Y856623D03*
X134345Y452203D03*
D10*
X173818Y234758D02*
X173818Y206365D01*
X149580Y542920D02*
X362870Y542920D01*
X149580Y542920D02*
X98335Y594165D01*
X38780Y917563D02*
X38780Y932798D01*
X38780Y917563D02*
X98335Y858008D01*
X98335Y594165D01*
X609400Y603860D02*
X655105Y603860D01*
X609400Y603860D02*
X549845Y544305D01*
X364948Y544305D01*
X363563Y542920D01*
X362870Y542920D01*
X173818Y355945D02*
X173818Y234758D01*
X173818Y355945D02*
X139193Y390570D01*
X139193Y531840D01*
X149580Y542228D01*
X149580Y542920D01*
D11*
X173818Y234758D03*
X173818Y206365D03*
X362870Y542920D03*
X98335Y594165D03*
X38780Y932798D03*
X655105Y603860D03*
D10*
X1219493Y573390D02*
X1231958Y560925D01*
D11*
X1219493Y573390D03*
X1231958Y560925D03*
D10*
X1253425Y351790D02*
X1253425Y340710D01*
D11*
X1253425Y351790D03*
X1253425Y340710D03*
D10*
X468130Y1048445D02*
X468130Y1056755D01*
X465360Y1059525D01*
X150273Y574083D02*
X150273Y549153D01*
X150273Y574083D02*
X133653Y590703D01*
X133653Y593473D01*
X439738Y899558D01*
X445278Y899558D01*
X468130Y922410D01*
X468130Y1048445D01*
X465360Y1060218D02*
X483365Y1078223D01*
X465360Y1060218D02*
X465360Y1059525D01*
D11*
X468130Y1048445D03*
X465360Y1059525D03*
X150273Y549153D03*
X483365Y1078223D03*
D10*
X920333Y603860D02*
X920333Y511065D01*
X676573Y511065D01*
X527685Y362178D01*
D11*
X920333Y511065D03*
X920333Y603860D03*
X527685Y362178D03*
D10*
X882938Y639178D02*
X938338Y639178D01*
X952880Y624635D01*
X233373Y421733D02*
X182128Y421733D01*
X233373Y421733D02*
X251378Y439738D01*
X268690Y439738D01*
X270075Y438353D01*
X277693Y438353D01*
X378798Y539458D01*
X389878Y539458D01*
X454280Y603860D02*
X592780Y603860D01*
X626020Y637100D01*
X880168Y637100D01*
X882245Y639178D01*
X882938Y639178D01*
D11*
X882938Y639178D03*
X952880Y624635D03*
X182128Y421733D03*
X389878Y539458D03*
X454280Y603860D03*
D10*
X896095Y178665D02*
X905098Y178665D01*
X896095Y178665D02*
X869088Y151658D01*
X869088Y143348D01*
X835155Y109415D01*
X671033Y109415D01*
X517990Y262458D01*
X517990Y345558D01*
X409268Y467438D02*
X331015Y467438D01*
X409268Y467438D02*
X454280Y512450D01*
X459820Y512450D01*
X517990Y454280D01*
X517990Y345558D01*
D11*
X905098Y178665D03*
X517990Y345558D03*
X331015Y467438D03*
D10*
X783218Y211905D02*
X811610Y211905D01*
X783218Y211905D02*
X684190Y310933D01*
X615633Y310933D01*
X581700Y277000D01*
X423118Y415500D02*
X175895Y415500D01*
X423118Y415500D02*
X444585Y394033D01*
D11*
X811610Y211905D03*
X581700Y277000D03*
X175895Y415500D03*
X444585Y394033D03*
D10*
X232680Y234758D02*
X232680Y206365D01*
X145425Y421733D02*
X144040Y421733D01*
X145425Y421733D02*
X148888Y425195D01*
X151658Y425195D01*
X196670Y380183D01*
X196670Y341403D01*
X232680Y305393D01*
X232680Y234758D01*
X38780Y903020D02*
X38780Y911330D01*
X38780Y903020D02*
X90718Y851083D01*
X90718Y482673D01*
X128805Y444585D01*
X841388Y106645D02*
X896788Y162045D01*
X458435Y106645D02*
X258995Y106645D01*
X458435Y106645D02*
X841388Y106645D01*
X458435Y106645D02*
X458435Y507603D01*
D11*
X232680Y234758D03*
X232680Y206365D03*
X144040Y421733D03*
X38780Y911330D03*
X128805Y444585D03*
X896788Y162045D03*
X258995Y106645D03*
X458435Y507603D03*
D10*
X247915Y613555D02*
X247915Y698040D01*
X444239Y894364D02*
X603168Y1053293D01*
X444239Y894364D02*
X247915Y698040D01*
X603168Y1053293D02*
X603168Y1067835D01*
X611478Y1076145D01*
X443893Y904405D02*
X288080Y1060218D01*
X443893Y894710D02*
X444239Y894364D01*
D11*
X247915Y613555D03*
X611478Y1076145D03*
X288080Y1060218D03*
X443893Y904405D03*
X443893Y894710D03*
D10*
X820613Y179358D02*
X837925Y179358D01*
X308855Y210520D02*
X308855Y234758D01*
X308855Y235450D02*
X201518Y342788D01*
X308855Y235450D02*
X308855Y234758D01*
D11*
X837925Y179358D03*
X820613Y179358D03*
X308855Y234758D03*
X308855Y210520D03*
X201518Y342788D03*
D10*
X270768Y234758D02*
X270768Y206365D01*
X271460Y443200D02*
X367718Y539458D01*
X270768Y267305D02*
X270768Y234758D01*
D11*
X270768Y234758D03*
X270768Y206365D03*
X367718Y539458D03*
X271460Y443200D03*
X270768Y267305D03*
D10*
X616325Y1060910D02*
X677265Y1060910D01*
X616325Y1060910D02*
X608015Y1060910D01*
X128805Y997893D02*
X128805Y595550D01*
X128805Y997893D02*
X211905Y1080993D01*
X616325Y1077530D02*
X616325Y1060910D01*
X616325Y1077530D02*
X610785Y1083070D01*
X214675Y1083070D01*
X212598Y1080993D01*
X211905Y1080993D01*
D11*
X608015Y1060910D03*
X677265Y1060910D03*
X128805Y595550D03*
X211905Y1080993D03*
D10*
X114955Y990275D02*
X114955Y596935D01*
X114955Y990275D02*
X210520Y1085840D01*
X832385Y1085840D01*
D11*
X114955Y596935D03*
X832385Y1085840D03*
D10*
X198055Y592088D02*
X138500Y592088D01*
X198055Y592088D02*
X214675Y608708D01*
X456358Y608708D01*
X853853Y1006203D01*
D11*
X138500Y592088D03*
X853853Y1006203D03*
D10*
X591395Y598320D02*
X265228Y598320D01*
X591395Y598320D02*
X623250Y630175D01*
X901635Y630175D01*
D11*
X265228Y598320D03*
X901635Y630175D03*
D10*
X1567820Y160660D02*
X1584440Y144040D01*
X1567820Y160660D02*
X1533195Y160660D01*
X1530425Y157890D01*
X1265890Y538765D02*
X1265890Y540843D01*
X1265890Y538765D02*
X1267275Y537380D01*
X1267275Y534610D01*
X1263813Y531148D01*
X1207028Y531148D02*
X957728Y531148D01*
X1207028Y531148D02*
X1263813Y531148D01*
X957728Y531148D02*
X939723Y513143D01*
X211905Y580315D02*
X202210Y590010D01*
X211905Y580315D02*
X581700Y580315D01*
X610093Y608708D01*
X921718Y608708D01*
X957728Y572698D01*
X957728Y531148D01*
X1497878Y157890D02*
X1530425Y157890D01*
X1497878Y157890D02*
X1205643Y450125D01*
X1205643Y481980D01*
X1207028Y483365D01*
X1207028Y531148D01*
D11*
X1584440Y144040D03*
X1530425Y157890D03*
X1265890Y540843D03*
X939723Y513143D03*
X202210Y590010D03*
D10*
X1536658Y155813D02*
X1536658Y128805D01*
X1537350Y154428D02*
X1567820Y154428D01*
X1537350Y154428D02*
X1536658Y155813D01*
X1262428Y535995D02*
X969500Y535995D01*
X582393Y585163D02*
X213290Y585163D01*
X582393Y585163D02*
X608708Y611478D01*
X923103Y611478D01*
X969500Y565080D01*
X969500Y535995D01*
X1567820Y153735D02*
X1582363Y139193D01*
X1585825Y139193D01*
X1589288Y142655D01*
X1589288Y331015D01*
X1334448Y585855D01*
X1304670Y585855D01*
X1261043Y542228D01*
X1261043Y536688D01*
X1567820Y154428D02*
X1567820Y153735D01*
X1262428Y535995D02*
X1261043Y536688D01*
D11*
X1536658Y128805D03*
X1536658Y155813D03*
X1567820Y154428D03*
X1262428Y535995D03*
X969500Y535995D03*
X213290Y585163D03*
D10*
X914100Y162045D02*
X945263Y162045D01*
X948033Y159275D01*
X950803Y159275D01*
X954265Y162738D01*
X954265Y171740D01*
X699425Y426580D01*
X614940Y426580D01*
X407883Y472285D02*
X326168Y472285D01*
D11*
X914100Y162045D03*
X614940Y426580D03*
X326168Y472285D03*
X407883Y472285D03*
D10*
X653720Y201518D02*
X653720Y176588D01*
D11*
X653720Y201518D03*
X653720Y176588D03*
D10*
X812995Y387800D02*
X886400Y387800D01*
X812995Y387800D02*
X774215Y426580D01*
D11*
X886400Y387800D03*
X774215Y426580D03*
D10*
X815073Y178665D02*
X847620Y146118D01*
X815073Y178665D02*
X815073Y202210D01*
X833770Y131575D02*
X833770Y114263D01*
X833770Y131575D02*
X847620Y145425D01*
X847620Y146118D01*
D11*
X847620Y146118D03*
X815073Y202210D03*
X833770Y114263D03*
D10*
X907521Y161699D02*
X923795Y177973D01*
X907521Y161699D02*
X882245Y136423D01*
X923795Y177973D02*
X929335Y177973D01*
X792220Y337940D02*
X792220Y402343D01*
X792220Y337940D02*
X957035Y173125D01*
X957035Y161353D01*
X952188Y156505D01*
X912715Y156505D01*
X907521Y161699D01*
D11*
X882245Y136423D03*
X929335Y177973D03*
X792220Y402343D03*
D10*
X947340Y170355D02*
X949418Y170355D01*
X947340Y170355D02*
X832385Y285310D01*
X724355Y285310D01*
D11*
X949418Y170355D03*
X724355Y285310D03*
D10*
X906483Y207058D02*
X949418Y164123D01*
X906483Y207058D02*
X766598Y207058D01*
D11*
X949418Y164123D03*
X766598Y207058D03*
D10*
X1124620Y456358D02*
X1124620Y526300D01*
D11*
X1124620Y526300D03*
X1124620Y456358D03*
D10*
X1210490Y451510D02*
X1336525Y577545D01*
D11*
X1210490Y451510D03*
X1336525Y577545D03*
D10*
X1226418Y489598D02*
X1222263Y489598D01*
X1226418Y489598D02*
X1317828Y581008D01*
D11*
X1222263Y489598D03*
X1317828Y581008D03*
D10*
X851775Y641948D02*
X851775Y672418D01*
D11*
X851775Y641948D03*
X851775Y672418D03*
D10*
X827538Y137115D02*
X827538Y114263D01*
D11*
X827538Y137115D03*
X827538Y114263D03*
D10*
X864240Y146118D02*
X864240Y159275D01*
X894710Y189745D01*
D11*
X864240Y146118D03*
X894710Y189745D03*
D10*
X860778Y143348D02*
X860778Y141270D01*
X860778Y143348D02*
X859393Y144733D01*
X859393Y189053D01*
D11*
X860778Y141270D03*
X859393Y189053D03*
D10*
X874628Y150965D02*
X874628Y146118D01*
X874628Y150965D02*
X897480Y173818D01*
D11*
X874628Y146118D03*
X897480Y173818D03*
D10*
X922410Y133653D02*
X894018Y105260D01*
D11*
X922410Y133653D03*
X894018Y105260D03*
D10*
X1070605Y431428D02*
X603860Y431428D01*
X1070605Y431428D02*
X1393310Y108723D01*
D11*
X603860Y431428D03*
X1393310Y108723D03*
M02*
