G04 EAGLE Gerber RS-274X export*
G75*
%MOMM*%
%FSLAX34Y34*%
%LPD*%
%INSolderpaste Top*%
%IPPOS*%
%AMOC8*
5,1,8,0,0,1.08239X$1,22.5*%
G01*
G04 Define Apertures*
%ADD10R,0.900000X0.700000*%
%ADD11R,1.200000X0.600000*%
%ADD12R,1.150000X0.300000*%
%ADD13R,2.000000X2.180000*%
%ADD14R,0.535100X0.644000*%
%ADD15R,1.500000X3.600000*%
%ADD16R,1.200000X1.800000*%
%ADD17R,1.900000X1.400000*%
%ADD18R,1.500000X0.700000*%
%ADD19R,0.800000X0.900000*%
%ADD20R,0.900000X0.800000*%
%ADD21R,0.700000X0.900000*%
%ADD22R,0.900000X0.600000*%
%ADD23R,2.200000X2.000000*%
%ADD24R,0.900000X1.500000*%
%ADD25R,0.800000X0.800000*%
%ADD26R,1.168400X1.600200*%
%ADD27R,1.150000X0.800000*%
%ADD28R,1.050000X0.500000*%
%ADD29R,1.200000X0.550000*%
%ADD30R,0.300000X0.800000*%
%ADD31R,0.400000X0.800000*%
%ADD32C,0.125000*%
%ADD33R,1.400000X1.050000*%
%ADD34R,0.560000X0.820000*%
%ADD35C,0.067500*%
%ADD36C,0.147500*%
%ADD37R,1.400000X1.400000*%
%ADD38R,2.000000X1.200000*%
%ADD39R,1.350000X0.600000*%
%ADD40R,0.940000X0.970000*%
%ADD41R,1.010000X1.460000*%
%ADD42C,0.110000*%
%ADD43R,0.889000X4.826000*%
D10*
X1485900Y603100D03*
X1485900Y616100D03*
X1600200Y616100D03*
X1600200Y603100D03*
D11*
X1574600Y587400D03*
X1574600Y596900D03*
X1574600Y606400D03*
X1549600Y606400D03*
X1549600Y596900D03*
X1549600Y587400D03*
D12*
X1639620Y509500D03*
X1639620Y517500D03*
X1639620Y530500D03*
X1639620Y540500D03*
X1639620Y545500D03*
X1639620Y555500D03*
X1639620Y568500D03*
X1639620Y576500D03*
X1639620Y573500D03*
X1639620Y565500D03*
X1639620Y560500D03*
X1639620Y550500D03*
X1639620Y535500D03*
X1639620Y525500D03*
X1639620Y520500D03*
X1639620Y512500D03*
D13*
X1684670Y491900D03*
X1684670Y594100D03*
X1645370Y491900D03*
X1645370Y594100D03*
D14*
X1567175Y558800D03*
X1557025Y558800D03*
X1557025Y571500D03*
X1567175Y571500D03*
D15*
X1557580Y533400D03*
X1512580Y533400D03*
D16*
X154000Y853000D03*
X154000Y910000D03*
D17*
X11500Y823000D03*
X21500Y954500D03*
D18*
X50000Y871000D03*
X54000Y882000D03*
X50000Y893000D03*
X48000Y904000D03*
X50000Y915000D03*
X48000Y926000D03*
X50000Y937000D03*
X50000Y948000D03*
D16*
X154000Y881500D03*
X154000Y938500D03*
D10*
X63500Y1035200D03*
X63500Y1022200D03*
X1028700Y374500D03*
X1028700Y387500D03*
D19*
X1235100Y472600D03*
X1254100Y472600D03*
X1244600Y493600D03*
D20*
X1244600Y332400D03*
X1244600Y353400D03*
D21*
X1047600Y317500D03*
X1060600Y317500D03*
D22*
X1090900Y352400D03*
X1090900Y342900D03*
X1090900Y333400D03*
X1118900Y333400D03*
X1118900Y352400D03*
D10*
X990600Y349100D03*
X990600Y362100D03*
D23*
X1181100Y357900D03*
X1181100Y327900D03*
D24*
X74400Y433200D03*
X87100Y433200D03*
X99800Y433200D03*
X112500Y433200D03*
X125200Y433200D03*
X137900Y433200D03*
X150600Y433200D03*
X163300Y433200D03*
X176000Y433200D03*
X188700Y433200D03*
X201400Y433200D03*
X214100Y433200D03*
X226800Y433200D03*
X239500Y433200D03*
X239500Y608200D03*
X226800Y608200D03*
X214100Y608200D03*
X201400Y608200D03*
X188700Y608200D03*
X176000Y608200D03*
X163300Y608200D03*
X150600Y608200D03*
X137900Y608200D03*
X125200Y608200D03*
X112500Y608200D03*
X99800Y608200D03*
X87100Y608200D03*
X74400Y608200D03*
D25*
X131600Y505650D03*
X119100Y493150D03*
X119100Y505650D03*
X119100Y518150D03*
X131600Y493150D03*
X131600Y518150D03*
X144100Y493150D03*
X144100Y505650D03*
X144100Y518150D03*
D10*
X139700Y400200D03*
X139700Y387200D03*
D26*
X614680Y152400D03*
X629920Y152400D03*
D21*
X615800Y114300D03*
X628800Y114300D03*
D10*
X635000Y285600D03*
X635000Y298600D03*
X914400Y374500D03*
X914400Y387500D03*
D27*
X846100Y317500D03*
X881100Y317500D03*
X881100Y368300D03*
X846100Y368300D03*
X792200Y431800D03*
X757200Y431800D03*
D21*
X704700Y292100D03*
X717700Y292100D03*
D28*
X662600Y324000D03*
X662600Y311000D03*
X683600Y317500D03*
D21*
X653900Y355600D03*
X666900Y355600D03*
X1187300Y533400D03*
X1200300Y533400D03*
D25*
X1150500Y546100D03*
X1135500Y546100D03*
D10*
X1143000Y438000D03*
X1143000Y451000D03*
D29*
X1346501Y587400D03*
X1346501Y596900D03*
X1346501Y606400D03*
X1320499Y606400D03*
X1320499Y587400D03*
D21*
X1314300Y546100D03*
X1327300Y546100D03*
D10*
X1193800Y476100D03*
X1193800Y489100D03*
D30*
X959200Y154200D03*
X954200Y154200D03*
X949200Y154200D03*
X944200Y154200D03*
X939200Y154200D03*
X934200Y154200D03*
X929200Y154200D03*
X924200Y154200D03*
X919200Y154200D03*
X914200Y154200D03*
X909200Y154200D03*
X904200Y154200D03*
X899200Y154200D03*
X894200Y154200D03*
X889200Y154200D03*
X884200Y154200D03*
X879200Y154200D03*
X874200Y154200D03*
X869200Y154200D03*
X864200Y154200D03*
X859200Y154200D03*
X854200Y154200D03*
X849200Y154200D03*
X844200Y154200D03*
D31*
X969200Y129200D03*
X834200Y129200D03*
D10*
X1054100Y196700D03*
X1054100Y209700D03*
D21*
X603100Y254000D03*
X616100Y254000D03*
D19*
X612800Y193200D03*
X631800Y193200D03*
X622300Y214200D03*
D32*
X1513875Y171435D02*
X1513875Y162525D01*
X1510125Y162525D01*
X1510125Y171435D01*
X1513875Y171435D01*
X1513875Y163712D02*
X1510125Y163712D01*
X1510125Y164899D02*
X1513875Y164899D01*
X1513875Y166086D02*
X1510125Y166086D01*
X1510125Y167273D02*
X1513875Y167273D01*
X1513875Y168460D02*
X1510125Y168460D01*
X1510125Y169647D02*
X1513875Y169647D01*
X1513875Y170834D02*
X1510125Y170834D01*
X1521875Y171435D02*
X1521875Y162525D01*
X1518125Y162525D01*
X1518125Y171435D01*
X1521875Y171435D01*
X1521875Y163712D02*
X1518125Y163712D01*
X1518125Y164899D02*
X1521875Y164899D01*
X1521875Y166086D02*
X1518125Y166086D01*
X1518125Y167273D02*
X1521875Y167273D01*
X1521875Y168460D02*
X1518125Y168460D01*
X1518125Y169647D02*
X1521875Y169647D01*
X1521875Y170834D02*
X1518125Y170834D01*
X1529875Y171435D02*
X1529875Y162525D01*
X1526125Y162525D01*
X1526125Y171435D01*
X1529875Y171435D01*
X1529875Y163712D02*
X1526125Y163712D01*
X1526125Y164899D02*
X1529875Y164899D01*
X1529875Y166086D02*
X1526125Y166086D01*
X1526125Y167273D02*
X1529875Y167273D01*
X1529875Y168460D02*
X1526125Y168460D01*
X1526125Y169647D02*
X1529875Y169647D01*
X1529875Y170834D02*
X1526125Y170834D01*
X1537875Y171435D02*
X1537875Y162525D01*
X1534125Y162525D01*
X1534125Y171435D01*
X1537875Y171435D01*
X1537875Y163712D02*
X1534125Y163712D01*
X1534125Y164899D02*
X1537875Y164899D01*
X1537875Y166086D02*
X1534125Y166086D01*
X1534125Y167273D02*
X1537875Y167273D01*
X1537875Y168460D02*
X1534125Y168460D01*
X1534125Y169647D02*
X1537875Y169647D01*
X1537875Y170834D02*
X1534125Y170834D01*
X1538075Y142275D02*
X1538075Y133365D01*
X1534325Y133365D01*
X1534325Y142275D01*
X1538075Y142275D01*
X1538075Y134552D02*
X1534325Y134552D01*
X1534325Y135739D02*
X1538075Y135739D01*
X1538075Y136926D02*
X1534325Y136926D01*
X1534325Y138113D02*
X1538075Y138113D01*
X1538075Y139300D02*
X1534325Y139300D01*
X1534325Y140487D02*
X1538075Y140487D01*
X1538075Y141674D02*
X1534325Y141674D01*
X1529875Y142275D02*
X1529875Y133365D01*
X1526125Y133365D01*
X1526125Y142275D01*
X1529875Y142275D01*
X1529875Y134552D02*
X1526125Y134552D01*
X1526125Y135739D02*
X1529875Y135739D01*
X1529875Y136926D02*
X1526125Y136926D01*
X1526125Y138113D02*
X1529875Y138113D01*
X1529875Y139300D02*
X1526125Y139300D01*
X1526125Y140487D02*
X1529875Y140487D01*
X1529875Y141674D02*
X1526125Y141674D01*
X1521875Y142275D02*
X1521875Y133365D01*
X1518125Y133365D01*
X1518125Y142275D01*
X1521875Y142275D01*
X1521875Y134552D02*
X1518125Y134552D01*
X1518125Y135739D02*
X1521875Y135739D01*
X1521875Y136926D02*
X1518125Y136926D01*
X1518125Y138113D02*
X1521875Y138113D01*
X1521875Y139300D02*
X1518125Y139300D01*
X1518125Y140487D02*
X1521875Y140487D01*
X1521875Y141674D02*
X1518125Y141674D01*
X1513875Y142275D02*
X1513875Y133365D01*
X1510125Y133365D01*
X1510125Y142275D01*
X1513875Y142275D01*
X1513875Y134552D02*
X1510125Y134552D01*
X1510125Y135739D02*
X1513875Y135739D01*
X1513875Y136926D02*
X1510125Y136926D01*
X1510125Y138113D02*
X1513875Y138113D01*
X1513875Y139300D02*
X1510125Y139300D01*
X1510125Y140487D02*
X1513875Y140487D01*
X1513875Y141674D02*
X1510125Y141674D01*
D10*
X1536700Y108100D03*
X1536700Y95100D03*
X1511300Y108100D03*
X1511300Y95100D03*
X1485900Y108100D03*
X1485900Y95100D03*
X1447800Y108100D03*
X1447800Y95100D03*
X533400Y920600D03*
X533400Y933600D03*
D22*
X468600Y936600D03*
X468600Y927100D03*
X468600Y917600D03*
X496600Y917600D03*
X496600Y936600D03*
D10*
X457200Y1060300D03*
X457200Y1073300D03*
D33*
X507500Y1084188D03*
X472500Y1084188D03*
X472500Y1069188D03*
X507500Y1069188D03*
D10*
X520700Y1060300D03*
X520700Y1073300D03*
X209730Y1060300D03*
X209730Y1073300D03*
D33*
X657500Y1084188D03*
X622500Y1084188D03*
X622500Y1069188D03*
X657500Y1069188D03*
D10*
X279400Y1060300D03*
X279400Y1073300D03*
X596900Y1060300D03*
X596900Y1073300D03*
D33*
X257500Y1084188D03*
X222500Y1084188D03*
X222500Y1069188D03*
X257500Y1069188D03*
D10*
X685800Y1060300D03*
X685800Y1073300D03*
D34*
X1244600Y533400D03*
D35*
X1238213Y539887D02*
X1231287Y539887D01*
X1231287Y541913D01*
X1238213Y541913D01*
X1238213Y539887D01*
X1238213Y540528D02*
X1231287Y540528D01*
X1231287Y541169D02*
X1238213Y541169D01*
X1238213Y541810D02*
X1231287Y541810D01*
X1231287Y534887D02*
X1238213Y534887D01*
X1231287Y534887D02*
X1231287Y536913D01*
X1238213Y536913D01*
X1238213Y534887D01*
X1238213Y535528D02*
X1231287Y535528D01*
X1231287Y536169D02*
X1238213Y536169D01*
X1238213Y536810D02*
X1231287Y536810D01*
X1231287Y529887D02*
X1238213Y529887D01*
X1231287Y529887D02*
X1231287Y531913D01*
X1238213Y531913D01*
X1238213Y529887D01*
X1238213Y530528D02*
X1231287Y530528D01*
X1231287Y531169D02*
X1238213Y531169D01*
X1238213Y531810D02*
X1231287Y531810D01*
X1231287Y524887D02*
X1238213Y524887D01*
X1231287Y524887D02*
X1231287Y526913D01*
X1238213Y526913D01*
X1238213Y524887D01*
X1238213Y525528D02*
X1231287Y525528D01*
X1231287Y526169D02*
X1238213Y526169D01*
X1238213Y526810D02*
X1231287Y526810D01*
X1250987Y524887D02*
X1257913Y524887D01*
X1250987Y524887D02*
X1250987Y526913D01*
X1257913Y526913D01*
X1257913Y524887D01*
X1257913Y525528D02*
X1250987Y525528D01*
X1250987Y526169D02*
X1257913Y526169D01*
X1257913Y526810D02*
X1250987Y526810D01*
X1250987Y529887D02*
X1257913Y529887D01*
X1250987Y529887D02*
X1250987Y531913D01*
X1257913Y531913D01*
X1257913Y529887D01*
X1257913Y530528D02*
X1250987Y530528D01*
X1250987Y531169D02*
X1257913Y531169D01*
X1257913Y531810D02*
X1250987Y531810D01*
X1250987Y534887D02*
X1257913Y534887D01*
X1250987Y534887D02*
X1250987Y536913D01*
X1257913Y536913D01*
X1257913Y534887D01*
X1257913Y535528D02*
X1250987Y535528D01*
X1250987Y536169D02*
X1257913Y536169D01*
X1257913Y536810D02*
X1250987Y536810D01*
X1250987Y539887D02*
X1257913Y539887D01*
X1250987Y539887D02*
X1250987Y541913D01*
X1257913Y541913D01*
X1257913Y539887D01*
X1257913Y540528D02*
X1250987Y540528D01*
X1250987Y541169D02*
X1257913Y541169D01*
X1257913Y541810D02*
X1250987Y541810D01*
D36*
X943937Y608537D02*
X943937Y627563D01*
X948363Y627563D01*
X948363Y608537D01*
X943937Y608537D01*
X943937Y609938D02*
X948363Y609938D01*
X948363Y611339D02*
X943937Y611339D01*
X943937Y612740D02*
X948363Y612740D01*
X948363Y614141D02*
X943937Y614141D01*
X943937Y615542D02*
X948363Y615542D01*
X948363Y616943D02*
X943937Y616943D01*
X943937Y618344D02*
X948363Y618344D01*
X948363Y619745D02*
X943937Y619745D01*
X943937Y621146D02*
X948363Y621146D01*
X948363Y622547D02*
X943937Y622547D01*
X943937Y623948D02*
X948363Y623948D01*
X948363Y625349D02*
X943937Y625349D01*
X943937Y626750D02*
X948363Y626750D01*
X931237Y627563D02*
X931237Y608537D01*
X931237Y627563D02*
X935663Y627563D01*
X935663Y608537D01*
X931237Y608537D01*
X931237Y609938D02*
X935663Y609938D01*
X935663Y611339D02*
X931237Y611339D01*
X931237Y612740D02*
X935663Y612740D01*
X935663Y614141D02*
X931237Y614141D01*
X931237Y615542D02*
X935663Y615542D01*
X935663Y616943D02*
X931237Y616943D01*
X931237Y618344D02*
X935663Y618344D01*
X935663Y619745D02*
X931237Y619745D01*
X931237Y621146D02*
X935663Y621146D01*
X935663Y622547D02*
X931237Y622547D01*
X931237Y623948D02*
X935663Y623948D01*
X935663Y625349D02*
X931237Y625349D01*
X931237Y626750D02*
X935663Y626750D01*
X918537Y627563D02*
X918537Y608537D01*
X918537Y627563D02*
X922963Y627563D01*
X922963Y608537D01*
X918537Y608537D01*
X918537Y609938D02*
X922963Y609938D01*
X922963Y611339D02*
X918537Y611339D01*
X918537Y612740D02*
X922963Y612740D01*
X922963Y614141D02*
X918537Y614141D01*
X918537Y615542D02*
X922963Y615542D01*
X922963Y616943D02*
X918537Y616943D01*
X918537Y618344D02*
X922963Y618344D01*
X922963Y619745D02*
X918537Y619745D01*
X918537Y621146D02*
X922963Y621146D01*
X922963Y622547D02*
X918537Y622547D01*
X918537Y623948D02*
X922963Y623948D01*
X922963Y625349D02*
X918537Y625349D01*
X918537Y626750D02*
X922963Y626750D01*
X905837Y627563D02*
X905837Y608537D01*
X905837Y627563D02*
X910263Y627563D01*
X910263Y608537D01*
X905837Y608537D01*
X905837Y609938D02*
X910263Y609938D01*
X910263Y611339D02*
X905837Y611339D01*
X905837Y612740D02*
X910263Y612740D01*
X910263Y614141D02*
X905837Y614141D01*
X905837Y615542D02*
X910263Y615542D01*
X910263Y616943D02*
X905837Y616943D01*
X905837Y618344D02*
X910263Y618344D01*
X910263Y619745D02*
X905837Y619745D01*
X905837Y621146D02*
X910263Y621146D01*
X910263Y622547D02*
X905837Y622547D01*
X905837Y623948D02*
X910263Y623948D01*
X910263Y625349D02*
X905837Y625349D01*
X905837Y626750D02*
X910263Y626750D01*
X893137Y627563D02*
X893137Y608537D01*
X893137Y627563D02*
X897563Y627563D01*
X897563Y608537D01*
X893137Y608537D01*
X893137Y609938D02*
X897563Y609938D01*
X897563Y611339D02*
X893137Y611339D01*
X893137Y612740D02*
X897563Y612740D01*
X897563Y614141D02*
X893137Y614141D01*
X893137Y615542D02*
X897563Y615542D01*
X897563Y616943D02*
X893137Y616943D01*
X893137Y618344D02*
X897563Y618344D01*
X897563Y619745D02*
X893137Y619745D01*
X893137Y621146D02*
X897563Y621146D01*
X897563Y622547D02*
X893137Y622547D01*
X893137Y623948D02*
X897563Y623948D01*
X897563Y625349D02*
X893137Y625349D01*
X893137Y626750D02*
X897563Y626750D01*
X880437Y627563D02*
X880437Y608537D01*
X880437Y627563D02*
X884863Y627563D01*
X884863Y608537D01*
X880437Y608537D01*
X880437Y609938D02*
X884863Y609938D01*
X884863Y611339D02*
X880437Y611339D01*
X880437Y612740D02*
X884863Y612740D01*
X884863Y614141D02*
X880437Y614141D01*
X880437Y615542D02*
X884863Y615542D01*
X884863Y616943D02*
X880437Y616943D01*
X880437Y618344D02*
X884863Y618344D01*
X884863Y619745D02*
X880437Y619745D01*
X880437Y621146D02*
X884863Y621146D01*
X884863Y622547D02*
X880437Y622547D01*
X880437Y623948D02*
X884863Y623948D01*
X884863Y625349D02*
X880437Y625349D01*
X880437Y626750D02*
X884863Y626750D01*
X867737Y627563D02*
X867737Y608537D01*
X867737Y627563D02*
X872163Y627563D01*
X872163Y608537D01*
X867737Y608537D01*
X867737Y609938D02*
X872163Y609938D01*
X872163Y611339D02*
X867737Y611339D01*
X867737Y612740D02*
X872163Y612740D01*
X872163Y614141D02*
X867737Y614141D01*
X867737Y615542D02*
X872163Y615542D01*
X872163Y616943D02*
X867737Y616943D01*
X867737Y618344D02*
X872163Y618344D01*
X872163Y619745D02*
X867737Y619745D01*
X867737Y621146D02*
X872163Y621146D01*
X872163Y622547D02*
X867737Y622547D01*
X867737Y623948D02*
X872163Y623948D01*
X872163Y625349D02*
X867737Y625349D01*
X867737Y626750D02*
X872163Y626750D01*
X855037Y627563D02*
X855037Y608537D01*
X855037Y627563D02*
X859463Y627563D01*
X859463Y608537D01*
X855037Y608537D01*
X855037Y609938D02*
X859463Y609938D01*
X859463Y611339D02*
X855037Y611339D01*
X855037Y612740D02*
X859463Y612740D01*
X859463Y614141D02*
X855037Y614141D01*
X855037Y615542D02*
X859463Y615542D01*
X859463Y616943D02*
X855037Y616943D01*
X855037Y618344D02*
X859463Y618344D01*
X859463Y619745D02*
X855037Y619745D01*
X855037Y621146D02*
X859463Y621146D01*
X859463Y622547D02*
X855037Y622547D01*
X855037Y623948D02*
X859463Y623948D01*
X859463Y625349D02*
X855037Y625349D01*
X855037Y626750D02*
X859463Y626750D01*
X855037Y534463D02*
X855037Y515437D01*
X855037Y534463D02*
X859463Y534463D01*
X859463Y515437D01*
X855037Y515437D01*
X855037Y516838D02*
X859463Y516838D01*
X859463Y518239D02*
X855037Y518239D01*
X855037Y519640D02*
X859463Y519640D01*
X859463Y521041D02*
X855037Y521041D01*
X855037Y522442D02*
X859463Y522442D01*
X859463Y523843D02*
X855037Y523843D01*
X855037Y525244D02*
X859463Y525244D01*
X859463Y526645D02*
X855037Y526645D01*
X855037Y528046D02*
X859463Y528046D01*
X859463Y529447D02*
X855037Y529447D01*
X855037Y530848D02*
X859463Y530848D01*
X859463Y532249D02*
X855037Y532249D01*
X855037Y533650D02*
X859463Y533650D01*
X867737Y534463D02*
X867737Y515437D01*
X867737Y534463D02*
X872163Y534463D01*
X872163Y515437D01*
X867737Y515437D01*
X867737Y516838D02*
X872163Y516838D01*
X872163Y518239D02*
X867737Y518239D01*
X867737Y519640D02*
X872163Y519640D01*
X872163Y521041D02*
X867737Y521041D01*
X867737Y522442D02*
X872163Y522442D01*
X872163Y523843D02*
X867737Y523843D01*
X867737Y525244D02*
X872163Y525244D01*
X872163Y526645D02*
X867737Y526645D01*
X867737Y528046D02*
X872163Y528046D01*
X872163Y529447D02*
X867737Y529447D01*
X867737Y530848D02*
X872163Y530848D01*
X872163Y532249D02*
X867737Y532249D01*
X867737Y533650D02*
X872163Y533650D01*
X880437Y534463D02*
X880437Y515437D01*
X880437Y534463D02*
X884863Y534463D01*
X884863Y515437D01*
X880437Y515437D01*
X880437Y516838D02*
X884863Y516838D01*
X884863Y518239D02*
X880437Y518239D01*
X880437Y519640D02*
X884863Y519640D01*
X884863Y521041D02*
X880437Y521041D01*
X880437Y522442D02*
X884863Y522442D01*
X884863Y523843D02*
X880437Y523843D01*
X880437Y525244D02*
X884863Y525244D01*
X884863Y526645D02*
X880437Y526645D01*
X880437Y528046D02*
X884863Y528046D01*
X884863Y529447D02*
X880437Y529447D01*
X880437Y530848D02*
X884863Y530848D01*
X884863Y532249D02*
X880437Y532249D01*
X880437Y533650D02*
X884863Y533650D01*
X893137Y534463D02*
X893137Y515437D01*
X893137Y534463D02*
X897563Y534463D01*
X897563Y515437D01*
X893137Y515437D01*
X893137Y516838D02*
X897563Y516838D01*
X897563Y518239D02*
X893137Y518239D01*
X893137Y519640D02*
X897563Y519640D01*
X897563Y521041D02*
X893137Y521041D01*
X893137Y522442D02*
X897563Y522442D01*
X897563Y523843D02*
X893137Y523843D01*
X893137Y525244D02*
X897563Y525244D01*
X897563Y526645D02*
X893137Y526645D01*
X893137Y528046D02*
X897563Y528046D01*
X897563Y529447D02*
X893137Y529447D01*
X893137Y530848D02*
X897563Y530848D01*
X897563Y532249D02*
X893137Y532249D01*
X893137Y533650D02*
X897563Y533650D01*
X905837Y534463D02*
X905837Y515437D01*
X905837Y534463D02*
X910263Y534463D01*
X910263Y515437D01*
X905837Y515437D01*
X905837Y516838D02*
X910263Y516838D01*
X910263Y518239D02*
X905837Y518239D01*
X905837Y519640D02*
X910263Y519640D01*
X910263Y521041D02*
X905837Y521041D01*
X905837Y522442D02*
X910263Y522442D01*
X910263Y523843D02*
X905837Y523843D01*
X905837Y525244D02*
X910263Y525244D01*
X910263Y526645D02*
X905837Y526645D01*
X905837Y528046D02*
X910263Y528046D01*
X910263Y529447D02*
X905837Y529447D01*
X905837Y530848D02*
X910263Y530848D01*
X910263Y532249D02*
X905837Y532249D01*
X905837Y533650D02*
X910263Y533650D01*
X918537Y534463D02*
X918537Y515437D01*
X918537Y534463D02*
X922963Y534463D01*
X922963Y515437D01*
X918537Y515437D01*
X918537Y516838D02*
X922963Y516838D01*
X922963Y518239D02*
X918537Y518239D01*
X918537Y519640D02*
X922963Y519640D01*
X922963Y521041D02*
X918537Y521041D01*
X918537Y522442D02*
X922963Y522442D01*
X922963Y523843D02*
X918537Y523843D01*
X918537Y525244D02*
X922963Y525244D01*
X922963Y526645D02*
X918537Y526645D01*
X918537Y528046D02*
X922963Y528046D01*
X922963Y529447D02*
X918537Y529447D01*
X918537Y530848D02*
X922963Y530848D01*
X922963Y532249D02*
X918537Y532249D01*
X918537Y533650D02*
X922963Y533650D01*
X931237Y534463D02*
X931237Y515437D01*
X931237Y534463D02*
X935663Y534463D01*
X935663Y515437D01*
X931237Y515437D01*
X931237Y516838D02*
X935663Y516838D01*
X935663Y518239D02*
X931237Y518239D01*
X931237Y519640D02*
X935663Y519640D01*
X935663Y521041D02*
X931237Y521041D01*
X931237Y522442D02*
X935663Y522442D01*
X935663Y523843D02*
X931237Y523843D01*
X931237Y525244D02*
X935663Y525244D01*
X935663Y526645D02*
X931237Y526645D01*
X931237Y528046D02*
X935663Y528046D01*
X935663Y529447D02*
X931237Y529447D01*
X931237Y530848D02*
X935663Y530848D01*
X935663Y532249D02*
X931237Y532249D01*
X931237Y533650D02*
X935663Y533650D01*
X943937Y534463D02*
X943937Y515437D01*
X943937Y534463D02*
X948363Y534463D01*
X948363Y515437D01*
X943937Y515437D01*
X943937Y516838D02*
X948363Y516838D01*
X948363Y518239D02*
X943937Y518239D01*
X943937Y519640D02*
X948363Y519640D01*
X948363Y521041D02*
X943937Y521041D01*
X943937Y522442D02*
X948363Y522442D01*
X948363Y523843D02*
X943937Y523843D01*
X943937Y525244D02*
X948363Y525244D01*
X948363Y526645D02*
X943937Y526645D01*
X943937Y528046D02*
X948363Y528046D01*
X948363Y529447D02*
X943937Y529447D01*
X943937Y530848D02*
X948363Y530848D01*
X948363Y532249D02*
X943937Y532249D01*
X943937Y533650D02*
X948363Y533650D01*
D19*
X992800Y622300D03*
X1013800Y622300D03*
D21*
X996800Y584200D03*
X1009800Y584200D03*
D10*
X800100Y577700D03*
X800100Y590700D03*
D37*
X887300Y685800D03*
X865300Y685800D03*
D21*
X882800Y647700D03*
X869800Y647700D03*
X920600Y482600D03*
X933600Y482600D03*
D38*
X1687750Y111000D03*
X1687750Y167000D03*
D39*
X1651000Y124000D03*
X1651000Y134000D03*
X1651000Y144000D03*
X1651000Y154000D03*
D40*
X165100Y183000D03*
X165100Y198000D03*
D10*
X165100Y234800D03*
X165100Y247800D03*
X1016000Y196700D03*
X1016000Y209700D03*
X977900Y196700D03*
X977900Y209700D03*
X939800Y196700D03*
X939800Y209700D03*
X901700Y196700D03*
X901700Y209700D03*
X863600Y196700D03*
X863600Y209700D03*
X825500Y196700D03*
X825500Y209700D03*
X774700Y196700D03*
X774700Y209700D03*
X762000Y95100D03*
X762000Y108100D03*
X762000Y44300D03*
X762000Y57300D03*
X203200Y234800D03*
X203200Y247800D03*
D40*
X203200Y183000D03*
X203200Y198000D03*
D10*
X241300Y234800D03*
X241300Y247800D03*
X317500Y234800D03*
X317500Y247800D03*
X355600Y234800D03*
X355600Y247800D03*
X279400Y234800D03*
X279400Y247800D03*
D40*
X317500Y183000D03*
X317500Y198000D03*
X355600Y183000D03*
X355600Y198000D03*
X279400Y183000D03*
X279400Y198000D03*
X241300Y183000D03*
X241300Y198000D03*
D41*
X411750Y530300D03*
X426450Y530300D03*
X411750Y511100D03*
X426450Y511100D03*
D42*
X384300Y538100D02*
X376000Y538100D01*
X376000Y541400D01*
X384300Y541400D01*
X384300Y538100D01*
X384300Y539145D02*
X376000Y539145D01*
X376000Y540190D02*
X384300Y540190D01*
X384300Y541235D02*
X376000Y541235D01*
X376000Y525400D02*
X384300Y525400D01*
X376000Y525400D02*
X376000Y528700D01*
X384300Y528700D01*
X384300Y525400D01*
X384300Y526445D02*
X376000Y526445D01*
X376000Y527490D02*
X384300Y527490D01*
X384300Y528535D02*
X376000Y528535D01*
X376000Y512700D02*
X384300Y512700D01*
X376000Y512700D02*
X376000Y516000D01*
X384300Y516000D01*
X384300Y512700D01*
X384300Y513745D02*
X376000Y513745D01*
X376000Y514790D02*
X384300Y514790D01*
X384300Y515835D02*
X376000Y515835D01*
X376000Y500000D02*
X384300Y500000D01*
X376000Y500000D02*
X376000Y503300D01*
X384300Y503300D01*
X384300Y500000D01*
X384300Y501045D02*
X376000Y501045D01*
X376000Y502090D02*
X384300Y502090D01*
X384300Y503135D02*
X376000Y503135D01*
X453900Y500000D02*
X462200Y500000D01*
X453900Y500000D02*
X453900Y503300D01*
X462200Y503300D01*
X462200Y500000D01*
X462200Y501045D02*
X453900Y501045D01*
X453900Y502090D02*
X462200Y502090D01*
X462200Y503135D02*
X453900Y503135D01*
X453900Y512700D02*
X462200Y512700D01*
X453900Y512700D02*
X453900Y516000D01*
X462200Y516000D01*
X462200Y512700D01*
X462200Y513745D02*
X453900Y513745D01*
X453900Y514790D02*
X462200Y514790D01*
X462200Y515835D02*
X453900Y515835D01*
X453900Y525400D02*
X462200Y525400D01*
X453900Y525400D02*
X453900Y528700D01*
X462200Y528700D01*
X462200Y525400D01*
X462200Y526445D02*
X453900Y526445D01*
X453900Y527490D02*
X462200Y527490D01*
X462200Y528535D02*
X453900Y528535D01*
X453900Y538100D02*
X462200Y538100D01*
X453900Y538100D02*
X453900Y541400D01*
X462200Y541400D01*
X462200Y538100D01*
X462200Y539145D02*
X453900Y539145D01*
X453900Y540190D02*
X462200Y540190D01*
X462200Y541235D02*
X453900Y541235D01*
D43*
X751840Y368300D03*
X797560Y368300D03*
M02*
