G04 EAGLE Gerber RS-274X export*
G75*
%MOMM*%
%FSLAX34Y34*%
%LPD*%
%INSoldermask Top*%
%IPPOS*%
%AMOC8*
5,1,8,0,0,1.08239X$1,22.5*%
G01*
G04 Define Apertures*
%ADD10R,1.103200X0.903200*%
%ADD11R,1.403200X0.803200*%
%ADD12R,1.353200X0.503200*%
%ADD13R,2.203200X2.383200*%
%ADD14C,0.853200*%
%ADD15R,0.738300X0.847200*%
%ADD16R,1.703200X3.803200*%
%ADD17R,1.403200X2.003200*%
%ADD18R,2.103200X1.603200*%
%ADD19R,1.703200X0.903200*%
%ADD20R,1.003200X1.103200*%
%ADD21R,1.103200X1.003200*%
%ADD22R,0.903200X1.103200*%
%ADD23R,1.103200X0.803200*%
%ADD24R,2.403200X2.203200*%
%ADD25R,1.103200X1.703200*%
%ADD26R,1.003200X1.003200*%
%ADD27R,0.152400X1.828800*%
%ADD28R,1.371600X1.803400*%
%ADD29R,1.353200X1.003200*%
%ADD30R,1.253200X0.703200*%
%ADD31R,1.403200X0.753200*%
%ADD32R,0.503200X1.003200*%
%ADD33R,0.603200X1.003200*%
%ADD34C,0.330503*%
%ADD35R,1.603200X1.253200*%
%ADD36C,0.269722*%
%ADD37R,1.103200X1.503200*%
%ADD38C,0.349006*%
%ADD39R,1.603200X1.603200*%
%ADD40C,2.203200*%
%ADD41R,2.203200X1.403200*%
%ADD42R,1.553200X0.803200*%
%ADD43R,1.143200X1.173200*%
%ADD44C,0.315166*%
%ADD45R,3.603200X4.503200*%
%ADD46R,1.092200X5.029200*%
%ADD47C,0.655600*%
D10*
X1485900Y603100D03*
X1485900Y616100D03*
X1600200Y616100D03*
X1600200Y603100D03*
D11*
X1574600Y587400D03*
X1574600Y596900D03*
X1574600Y606400D03*
X1549600Y606400D03*
X1549600Y596900D03*
X1549600Y587400D03*
D12*
X1639620Y509500D03*
X1639620Y517500D03*
X1639620Y530500D03*
X1639620Y540500D03*
X1639620Y545500D03*
X1639620Y555500D03*
X1639620Y568500D03*
X1639620Y576500D03*
X1639620Y573500D03*
X1639620Y565500D03*
X1639620Y560500D03*
X1639620Y550500D03*
X1639620Y535500D03*
X1639620Y525500D03*
X1639620Y520500D03*
X1639620Y512500D03*
D13*
X1684670Y491900D03*
X1684670Y594100D03*
X1645370Y491900D03*
X1645370Y594100D03*
D14*
X1650370Y514100D03*
X1650370Y571900D03*
D15*
X1567175Y558800D03*
X1557025Y558800D03*
X1557025Y571500D03*
X1567175Y571500D03*
D16*
X1557580Y533400D03*
X1512580Y533400D03*
D17*
X154000Y853000D03*
X154000Y910000D03*
D18*
X11500Y823000D03*
X21500Y954500D03*
D19*
X50000Y871000D03*
X54000Y882000D03*
X50000Y893000D03*
X48000Y904000D03*
X50000Y915000D03*
X48000Y926000D03*
X50000Y937000D03*
X50000Y948000D03*
D17*
X154000Y881500D03*
X154000Y938500D03*
D10*
X63500Y1035200D03*
X63500Y1022200D03*
X1028700Y374500D03*
X1028700Y387500D03*
D20*
X1235100Y472600D03*
X1254100Y472600D03*
X1244600Y493600D03*
D21*
X1244600Y332400D03*
X1244600Y353400D03*
D22*
X1047600Y317500D03*
X1060600Y317500D03*
D23*
X1090900Y352400D03*
X1090900Y342900D03*
X1090900Y333400D03*
X1118900Y333400D03*
X1118900Y352400D03*
D10*
X990600Y349100D03*
X990600Y362100D03*
D24*
X1181100Y357900D03*
X1181100Y327900D03*
D25*
X74400Y433200D03*
X87100Y433200D03*
X99800Y433200D03*
X112500Y433200D03*
X125200Y433200D03*
X137900Y433200D03*
X150600Y433200D03*
X163300Y433200D03*
X176000Y433200D03*
X188700Y433200D03*
X201400Y433200D03*
X214100Y433200D03*
X226800Y433200D03*
X239500Y433200D03*
X239500Y608200D03*
X226800Y608200D03*
X214100Y608200D03*
X201400Y608200D03*
X188700Y608200D03*
X176000Y608200D03*
X163300Y608200D03*
X150600Y608200D03*
X137900Y608200D03*
X125200Y608200D03*
X112500Y608200D03*
X99800Y608200D03*
X87100Y608200D03*
X74400Y608200D03*
D26*
X131600Y505650D03*
X119100Y493150D03*
X119100Y505650D03*
X119100Y518150D03*
X131600Y493150D03*
X131600Y518150D03*
X144100Y493150D03*
X144100Y505650D03*
X144100Y518150D03*
D10*
X139700Y400200D03*
X139700Y387200D03*
D27*
X622300Y152400D03*
D28*
X614680Y152400D03*
X629920Y152400D03*
D22*
X615800Y114300D03*
X628800Y114300D03*
D10*
X635000Y285600D03*
X635000Y298600D03*
X914400Y374500D03*
X914400Y387500D03*
D29*
X846100Y317500D03*
X881100Y317500D03*
X881100Y368300D03*
X846100Y368300D03*
X792200Y431800D03*
X757200Y431800D03*
D22*
X704700Y292100D03*
X717700Y292100D03*
D30*
X662600Y324000D03*
X662600Y311000D03*
X683600Y317500D03*
D22*
X653900Y355600D03*
X666900Y355600D03*
X1187300Y533400D03*
X1200300Y533400D03*
D26*
X1150500Y546100D03*
X1135500Y546100D03*
D10*
X1143000Y438000D03*
X1143000Y451000D03*
D31*
X1346501Y587400D03*
X1346501Y596900D03*
X1346501Y606400D03*
X1320499Y606400D03*
X1320499Y587400D03*
D22*
X1314300Y546100D03*
X1327300Y546100D03*
D10*
X1193800Y476100D03*
X1193800Y489100D03*
D32*
X959200Y154200D03*
X954200Y154200D03*
X949200Y154200D03*
X944200Y154200D03*
X939200Y154200D03*
X934200Y154200D03*
X929200Y154200D03*
X924200Y154200D03*
X919200Y154200D03*
X914200Y154200D03*
X909200Y154200D03*
X904200Y154200D03*
X899200Y154200D03*
X894200Y154200D03*
X889200Y154200D03*
X884200Y154200D03*
X879200Y154200D03*
X874200Y154200D03*
X869200Y154200D03*
X864200Y154200D03*
X859200Y154200D03*
X854200Y154200D03*
X849200Y154200D03*
X844200Y154200D03*
D33*
X969200Y129200D03*
X834200Y129200D03*
D10*
X1054100Y196700D03*
X1054100Y209700D03*
D22*
X603100Y254000D03*
X616100Y254000D03*
D20*
X612800Y193200D03*
X631800Y193200D03*
X622300Y214200D03*
D34*
X1513864Y171424D02*
X1513864Y162536D01*
X1510136Y162536D01*
X1510136Y171424D01*
X1513864Y171424D01*
X1513864Y165676D02*
X1510136Y165676D01*
X1510136Y168816D02*
X1513864Y168816D01*
X1521864Y171424D02*
X1521864Y162536D01*
X1518136Y162536D01*
X1518136Y171424D01*
X1521864Y171424D01*
X1521864Y165676D02*
X1518136Y165676D01*
X1518136Y168816D02*
X1521864Y168816D01*
X1529864Y171424D02*
X1529864Y162536D01*
X1526136Y162536D01*
X1526136Y171424D01*
X1529864Y171424D01*
X1529864Y165676D02*
X1526136Y165676D01*
X1526136Y168816D02*
X1529864Y168816D01*
X1537864Y171424D02*
X1537864Y162536D01*
X1534136Y162536D01*
X1534136Y171424D01*
X1537864Y171424D01*
X1537864Y165676D02*
X1534136Y165676D01*
X1534136Y168816D02*
X1537864Y168816D01*
X1538064Y142264D02*
X1538064Y133376D01*
X1534336Y133376D01*
X1534336Y142264D01*
X1538064Y142264D01*
X1538064Y136516D02*
X1534336Y136516D01*
X1534336Y139656D02*
X1538064Y139656D01*
X1529864Y142264D02*
X1529864Y133376D01*
X1526136Y133376D01*
X1526136Y142264D01*
X1529864Y142264D01*
X1529864Y136516D02*
X1526136Y136516D01*
X1526136Y139656D02*
X1529864Y139656D01*
X1521864Y142264D02*
X1521864Y133376D01*
X1518136Y133376D01*
X1518136Y142264D01*
X1521864Y142264D01*
X1521864Y136516D02*
X1518136Y136516D01*
X1518136Y139656D02*
X1521864Y139656D01*
X1513864Y142264D02*
X1513864Y133376D01*
X1510136Y133376D01*
X1510136Y142264D01*
X1513864Y142264D01*
X1513864Y136516D02*
X1510136Y136516D01*
X1510136Y139656D02*
X1513864Y139656D01*
D10*
X1536700Y108100D03*
X1536700Y95100D03*
X1511300Y108100D03*
X1511300Y95100D03*
X1485900Y108100D03*
X1485900Y95100D03*
X1447800Y108100D03*
X1447800Y95100D03*
X533400Y920600D03*
X533400Y933600D03*
D23*
X468600Y936600D03*
X468600Y927100D03*
X468600Y917600D03*
X496600Y917600D03*
X496600Y936600D03*
D10*
X457200Y1060300D03*
X457200Y1073300D03*
D35*
X507500Y1084188D03*
X472500Y1084188D03*
X472500Y1069188D03*
X507500Y1069188D03*
D10*
X520700Y1060300D03*
X520700Y1073300D03*
X209730Y1060300D03*
X209730Y1073300D03*
D35*
X657500Y1084188D03*
X622500Y1084188D03*
X622500Y1069188D03*
X657500Y1069188D03*
D10*
X279400Y1060300D03*
X279400Y1073300D03*
X596900Y1060300D03*
X596900Y1073300D03*
D35*
X257500Y1084188D03*
X222500Y1084188D03*
X222500Y1069188D03*
X257500Y1069188D03*
D10*
X685800Y1060300D03*
X685800Y1073300D03*
D36*
X1231282Y539882D02*
X1238218Y539882D01*
X1231282Y539882D02*
X1231282Y541918D01*
X1238218Y541918D01*
X1238218Y539882D01*
X1238218Y534882D02*
X1231282Y534882D01*
X1231282Y536918D01*
X1238218Y536918D01*
X1238218Y534882D01*
X1238218Y529882D02*
X1231282Y529882D01*
X1231282Y531918D01*
X1238218Y531918D01*
X1238218Y529882D01*
X1238218Y524882D02*
X1231282Y524882D01*
X1231282Y526918D01*
X1238218Y526918D01*
X1238218Y524882D01*
X1250982Y524882D02*
X1257918Y524882D01*
X1250982Y524882D02*
X1250982Y526918D01*
X1257918Y526918D01*
X1257918Y524882D01*
X1257918Y529882D02*
X1250982Y529882D01*
X1250982Y531918D01*
X1257918Y531918D01*
X1257918Y529882D01*
X1257918Y534882D02*
X1250982Y534882D01*
X1250982Y536918D01*
X1257918Y536918D01*
X1257918Y534882D01*
X1257918Y539882D02*
X1250982Y539882D01*
X1250982Y541918D01*
X1257918Y541918D01*
X1257918Y539882D01*
D37*
X1244600Y533400D03*
D38*
X943929Y608529D02*
X943929Y627571D01*
X948371Y627571D01*
X948371Y608529D01*
X943929Y608529D01*
X943929Y611844D02*
X948371Y611844D01*
X948371Y615159D02*
X943929Y615159D01*
X943929Y618474D02*
X948371Y618474D01*
X948371Y621789D02*
X943929Y621789D01*
X943929Y625104D02*
X948371Y625104D01*
X931229Y627571D02*
X931229Y608529D01*
X931229Y627571D02*
X935671Y627571D01*
X935671Y608529D01*
X931229Y608529D01*
X931229Y611844D02*
X935671Y611844D01*
X935671Y615159D02*
X931229Y615159D01*
X931229Y618474D02*
X935671Y618474D01*
X935671Y621789D02*
X931229Y621789D01*
X931229Y625104D02*
X935671Y625104D01*
X918529Y627571D02*
X918529Y608529D01*
X918529Y627571D02*
X922971Y627571D01*
X922971Y608529D01*
X918529Y608529D01*
X918529Y611844D02*
X922971Y611844D01*
X922971Y615159D02*
X918529Y615159D01*
X918529Y618474D02*
X922971Y618474D01*
X922971Y621789D02*
X918529Y621789D01*
X918529Y625104D02*
X922971Y625104D01*
X905829Y627571D02*
X905829Y608529D01*
X905829Y627571D02*
X910271Y627571D01*
X910271Y608529D01*
X905829Y608529D01*
X905829Y611844D02*
X910271Y611844D01*
X910271Y615159D02*
X905829Y615159D01*
X905829Y618474D02*
X910271Y618474D01*
X910271Y621789D02*
X905829Y621789D01*
X905829Y625104D02*
X910271Y625104D01*
X893129Y627571D02*
X893129Y608529D01*
X893129Y627571D02*
X897571Y627571D01*
X897571Y608529D01*
X893129Y608529D01*
X893129Y611844D02*
X897571Y611844D01*
X897571Y615159D02*
X893129Y615159D01*
X893129Y618474D02*
X897571Y618474D01*
X897571Y621789D02*
X893129Y621789D01*
X893129Y625104D02*
X897571Y625104D01*
X880429Y627571D02*
X880429Y608529D01*
X880429Y627571D02*
X884871Y627571D01*
X884871Y608529D01*
X880429Y608529D01*
X880429Y611844D02*
X884871Y611844D01*
X884871Y615159D02*
X880429Y615159D01*
X880429Y618474D02*
X884871Y618474D01*
X884871Y621789D02*
X880429Y621789D01*
X880429Y625104D02*
X884871Y625104D01*
X867729Y627571D02*
X867729Y608529D01*
X867729Y627571D02*
X872171Y627571D01*
X872171Y608529D01*
X867729Y608529D01*
X867729Y611844D02*
X872171Y611844D01*
X872171Y615159D02*
X867729Y615159D01*
X867729Y618474D02*
X872171Y618474D01*
X872171Y621789D02*
X867729Y621789D01*
X867729Y625104D02*
X872171Y625104D01*
X855029Y627571D02*
X855029Y608529D01*
X855029Y627571D02*
X859471Y627571D01*
X859471Y608529D01*
X855029Y608529D01*
X855029Y611844D02*
X859471Y611844D01*
X859471Y615159D02*
X855029Y615159D01*
X855029Y618474D02*
X859471Y618474D01*
X859471Y621789D02*
X855029Y621789D01*
X855029Y625104D02*
X859471Y625104D01*
X855029Y534471D02*
X855029Y515429D01*
X855029Y534471D02*
X859471Y534471D01*
X859471Y515429D01*
X855029Y515429D01*
X855029Y518744D02*
X859471Y518744D01*
X859471Y522059D02*
X855029Y522059D01*
X855029Y525374D02*
X859471Y525374D01*
X859471Y528689D02*
X855029Y528689D01*
X855029Y532004D02*
X859471Y532004D01*
X867729Y534471D02*
X867729Y515429D01*
X867729Y534471D02*
X872171Y534471D01*
X872171Y515429D01*
X867729Y515429D01*
X867729Y518744D02*
X872171Y518744D01*
X872171Y522059D02*
X867729Y522059D01*
X867729Y525374D02*
X872171Y525374D01*
X872171Y528689D02*
X867729Y528689D01*
X867729Y532004D02*
X872171Y532004D01*
X880429Y534471D02*
X880429Y515429D01*
X880429Y534471D02*
X884871Y534471D01*
X884871Y515429D01*
X880429Y515429D01*
X880429Y518744D02*
X884871Y518744D01*
X884871Y522059D02*
X880429Y522059D01*
X880429Y525374D02*
X884871Y525374D01*
X884871Y528689D02*
X880429Y528689D01*
X880429Y532004D02*
X884871Y532004D01*
X893129Y534471D02*
X893129Y515429D01*
X893129Y534471D02*
X897571Y534471D01*
X897571Y515429D01*
X893129Y515429D01*
X893129Y518744D02*
X897571Y518744D01*
X897571Y522059D02*
X893129Y522059D01*
X893129Y525374D02*
X897571Y525374D01*
X897571Y528689D02*
X893129Y528689D01*
X893129Y532004D02*
X897571Y532004D01*
X905829Y534471D02*
X905829Y515429D01*
X905829Y534471D02*
X910271Y534471D01*
X910271Y515429D01*
X905829Y515429D01*
X905829Y518744D02*
X910271Y518744D01*
X910271Y522059D02*
X905829Y522059D01*
X905829Y525374D02*
X910271Y525374D01*
X910271Y528689D02*
X905829Y528689D01*
X905829Y532004D02*
X910271Y532004D01*
X918529Y534471D02*
X918529Y515429D01*
X918529Y534471D02*
X922971Y534471D01*
X922971Y515429D01*
X918529Y515429D01*
X918529Y518744D02*
X922971Y518744D01*
X922971Y522059D02*
X918529Y522059D01*
X918529Y525374D02*
X922971Y525374D01*
X922971Y528689D02*
X918529Y528689D01*
X918529Y532004D02*
X922971Y532004D01*
X931229Y534471D02*
X931229Y515429D01*
X931229Y534471D02*
X935671Y534471D01*
X935671Y515429D01*
X931229Y515429D01*
X931229Y518744D02*
X935671Y518744D01*
X935671Y522059D02*
X931229Y522059D01*
X931229Y525374D02*
X935671Y525374D01*
X935671Y528689D02*
X931229Y528689D01*
X931229Y532004D02*
X935671Y532004D01*
X943929Y534471D02*
X943929Y515429D01*
X943929Y534471D02*
X948371Y534471D01*
X948371Y515429D01*
X943929Y515429D01*
X943929Y518744D02*
X948371Y518744D01*
X948371Y522059D02*
X943929Y522059D01*
X943929Y525374D02*
X948371Y525374D01*
X948371Y528689D02*
X943929Y528689D01*
X943929Y532004D02*
X948371Y532004D01*
D20*
X992800Y622300D03*
X1013800Y622300D03*
D22*
X996800Y584200D03*
X1009800Y584200D03*
D10*
X800100Y577700D03*
X800100Y590700D03*
D39*
X887300Y685800D03*
X865300Y685800D03*
D22*
X882800Y647700D03*
X869800Y647700D03*
X920600Y482600D03*
X933600Y482600D03*
D40*
X863600Y1066800D03*
X863600Y1016000D03*
X1219200Y609600D03*
X863600Y914400D03*
X863600Y863600D03*
X863600Y812800D03*
X203200Y76200D03*
X241300Y88900D03*
X508000Y355600D03*
X317500Y127000D03*
X571500Y571500D03*
X571500Y520700D03*
X571500Y266700D03*
X571500Y469900D03*
X571500Y419100D03*
X1257300Y596900D03*
X571500Y317500D03*
D41*
X1687750Y111000D03*
X1687750Y167000D03*
D42*
X1651000Y124000D03*
X1651000Y134000D03*
X1651000Y144000D03*
X1651000Y154000D03*
D43*
X165100Y183000D03*
X165100Y198000D03*
D10*
X165100Y234800D03*
X165100Y247800D03*
X1016000Y196700D03*
X1016000Y209700D03*
X977900Y196700D03*
X977900Y209700D03*
X939800Y196700D03*
X939800Y209700D03*
X901700Y196700D03*
X901700Y209700D03*
X863600Y196700D03*
X863600Y209700D03*
X825500Y196700D03*
X825500Y209700D03*
X774700Y196700D03*
X774700Y209700D03*
X762000Y95100D03*
X762000Y108100D03*
X762000Y44300D03*
X762000Y57300D03*
X203200Y234800D03*
X203200Y247800D03*
D43*
X203200Y183000D03*
X203200Y198000D03*
D10*
X241300Y234800D03*
X241300Y247800D03*
X317500Y234800D03*
X317500Y247800D03*
X355600Y234800D03*
X355600Y247800D03*
X279400Y234800D03*
X279400Y247800D03*
D43*
X317500Y183000D03*
X317500Y198000D03*
X355600Y183000D03*
X355600Y198000D03*
X279400Y183000D03*
X279400Y198000D03*
X241300Y183000D03*
X241300Y198000D03*
D44*
X376010Y538110D02*
X384290Y538110D01*
X376010Y538110D02*
X376010Y541390D01*
X384290Y541390D01*
X384290Y538110D01*
X384290Y541104D02*
X376010Y541104D01*
X376010Y525410D02*
X384290Y525410D01*
X376010Y525410D02*
X376010Y528690D01*
X384290Y528690D01*
X384290Y525410D01*
X384290Y528404D02*
X376010Y528404D01*
X376010Y512710D02*
X384290Y512710D01*
X376010Y512710D02*
X376010Y515990D01*
X384290Y515990D01*
X384290Y512710D01*
X384290Y515704D02*
X376010Y515704D01*
X376010Y500010D02*
X384290Y500010D01*
X376010Y500010D02*
X376010Y503290D01*
X384290Y503290D01*
X384290Y500010D01*
X384290Y503004D02*
X376010Y503004D01*
X453910Y500010D02*
X462190Y500010D01*
X453910Y500010D02*
X453910Y503290D01*
X462190Y503290D01*
X462190Y500010D01*
X462190Y503004D02*
X453910Y503004D01*
X453910Y512710D02*
X462190Y512710D01*
X453910Y512710D02*
X453910Y515990D01*
X462190Y515990D01*
X462190Y512710D01*
X462190Y515704D02*
X453910Y515704D01*
X453910Y525410D02*
X462190Y525410D01*
X453910Y525410D02*
X453910Y528690D01*
X462190Y528690D01*
X462190Y525410D01*
X462190Y528404D02*
X453910Y528404D01*
X453910Y538110D02*
X462190Y538110D01*
X453910Y538110D02*
X453910Y541390D01*
X462190Y541390D01*
X462190Y538110D01*
X462190Y541104D02*
X453910Y541104D01*
D45*
X419100Y520700D03*
D46*
X751840Y368300D03*
X797560Y368300D03*
D47*
X1565050Y602475D03*
X938338Y602475D03*
X894710Y599013D03*
X258995Y434890D03*
X1584440Y587933D03*
X952188Y588625D03*
X890555Y588625D03*
X247915Y430043D03*
X1630145Y540843D03*
X1630145Y550538D03*
X1552585Y580315D03*
X74098Y596935D03*
X74098Y851083D03*
X506218Y933490D03*
X477133Y913408D03*
X637100Y306085D03*
X696655Y292235D03*
X1202180Y524915D03*
X1202180Y484750D03*
X1167555Y340710D03*
X614940Y171740D03*
X1589980Y571313D03*
X1630145Y531148D03*
X1620450Y565773D03*
X1630145Y564388D03*
X355253Y219523D03*
X352483Y207058D03*
X364255Y250685D03*
X78945Y856623D03*
X112878Y444585D03*
X894018Y141963D03*
X234758Y76175D03*
X211905Y234758D03*
X449433Y501370D03*
X211905Y198055D03*
X150273Y420348D03*
X93488Y856623D03*
X134345Y452203D03*
X173818Y234758D03*
X173818Y206365D03*
X362870Y542920D03*
X98335Y594165D03*
X38780Y932798D03*
X655105Y603860D03*
X1219493Y573390D03*
X1231958Y560925D03*
X1253425Y351790D03*
X1253425Y340710D03*
X468130Y1048445D03*
X465360Y1059525D03*
X150273Y549153D03*
X483365Y1078223D03*
X920333Y511065D03*
X920333Y603860D03*
X527685Y362178D03*
X882938Y639178D03*
X952880Y624635D03*
X182128Y421733D03*
X389878Y539458D03*
X454280Y603860D03*
X905098Y178665D03*
X517990Y345558D03*
X331015Y467438D03*
X811610Y211905D03*
X581700Y277000D03*
X175895Y415500D03*
X444585Y394033D03*
X232680Y234758D03*
X232680Y206365D03*
X144040Y421733D03*
X38780Y911330D03*
X128805Y444585D03*
X896788Y162045D03*
X258995Y106645D03*
X458435Y507603D03*
X247915Y613555D03*
X611478Y1076145D03*
X288080Y1060218D03*
X443893Y904405D03*
X443893Y894710D03*
X837925Y179358D03*
X820613Y179358D03*
X308855Y234758D03*
X308855Y210520D03*
X201518Y342788D03*
X270768Y234758D03*
X270768Y206365D03*
X367718Y539458D03*
X271460Y443200D03*
X270768Y267305D03*
X608015Y1060910D03*
X677265Y1060910D03*
X128805Y595550D03*
X211905Y1080993D03*
X114955Y596935D03*
X832385Y1085840D03*
X138500Y592088D03*
X853853Y1006203D03*
X265228Y598320D03*
X901635Y630175D03*
X1584440Y144040D03*
X1530425Y157890D03*
X1265890Y540843D03*
X939723Y513143D03*
X202210Y590010D03*
X1536658Y128805D03*
X1536658Y155813D03*
X1567820Y154428D03*
X1262428Y535995D03*
X969500Y535995D03*
X213290Y585163D03*
X914100Y162045D03*
X614940Y426580D03*
X326168Y472285D03*
X407883Y472285D03*
X653720Y201518D03*
X653720Y176588D03*
X886400Y387800D03*
X774215Y426580D03*
X847620Y146118D03*
X815073Y202210D03*
X833770Y114263D03*
X882245Y136423D03*
X929335Y177973D03*
X792220Y402343D03*
X949418Y170355D03*
X724355Y285310D03*
X949418Y164123D03*
X766598Y207058D03*
X1124620Y526300D03*
X1124620Y456358D03*
X1210490Y451510D03*
X1336525Y577545D03*
X1222263Y489598D03*
X1317828Y581008D03*
X851775Y641948D03*
X851775Y672418D03*
X827538Y137115D03*
X827538Y114263D03*
X864240Y146118D03*
X894710Y189745D03*
X860778Y141270D03*
X859393Y189053D03*
X874628Y146118D03*
X897480Y173818D03*
X922410Y133653D03*
X894018Y105260D03*
X603860Y431428D03*
X1393310Y108723D03*
M02*
